<?xml version="1.0" encoding="UTF-8" standalone="no"?>
<!-- Created with Inkscape (http://www.inkscape.org/) -->

<svg
   width="142.7271mm"
   height="101.73857mm"
   viewBox="0 0 142.7271 101.73857"
   version="1.1"
   id="svg5"
   xml:space="preserve"
   xmlns:inkscape="http://www.inkscape.org/namespaces/inkscape"
   xmlns:sodipodi="http://sodipodi.sourceforge.net/DTD/sodipodi-0.dtd"
   xmlns="http://www.w3.org/2000/svg"
   xmlns:svg="http://www.w3.org/2000/svg"><sodipodi:namedview
     id="namedview7"
     pagecolor="#ffffff"
     bordercolor="#000000"
     borderopacity="0.25"
     inkscape:showpageshadow="2"
     inkscape:pageopacity="0.0"
     inkscape:pagecheckerboard="0"
     inkscape:deskcolor="#d1d1d1"
     inkscape:document-units="mm"
     showgrid="false" /><defs
     id="defs2" /><g
     inkscape:label="Layer 1"
     inkscape:groupmode="layer"
     id="layer1"
     transform="translate(-24.659365,-137.83323)"><path
       style="fill:#000000;stroke-width:0.264583"
       d="m 125.82609,239.32055 c -0.74759,-0.17992 -2.29657,-0.91274 -3.44219,-1.62849 -1.14562,-0.71575 -2.40626,-1.47997 -2.80141,-1.69825 -0.39516,-0.21828 -2.83476,-1.83176 -5.42135,-3.58551 -5.42479,-3.6781 -7.98339,-5.20488 -11.31746,-6.75342 -1.30969,-0.60829 -3.333764,-1.55182 -4.497924,-2.09674 -1.16417,-0.54491 -2.59292,-1.14122 -3.175,-1.32512 -0.58208,-0.1839 -1.59412,-0.60121 -2.24896,-0.92736 -0.65484,-0.32615 -2.61937,-1.1548 -4.36563,-1.84145 -5.14213,-2.02195 -5.600769,-2.24961 -5.913089,-2.93507 -0.162266,-0.35614 -0.51994,-0.64366 -0.8007,-0.64366 -0.613754,0 -1.715006,-1.21467 -3.102298,-3.4218 -0.567502,-0.90288 -1.597372,-2.42361 -2.288595,-3.3794 -0.691224,-0.95579 -1.256771,-1.87936 -1.256771,-2.05238 0,-0.17303 -0.281038,-0.57861 -0.624525,-0.90131 -0.495861,-0.46583 -0.66021,-0.97063 -0.797725,-2.45023 -0.245295,-2.6393 -1.31637,-7.40072 -2.224193,-9.88759 -0.424976,-1.16416 -0.991449,-2.9501 -1.258829,-3.96875 -0.267377,-1.01865 -0.559282,-1.91162 -0.648674,-1.98438 -0.08939,-0.0728 -0.433845,-0.57877 -0.765455,-1.12447 -0.555104,-0.9135 -0.700895,-0.9934 -1.838116,-1.00744 -1.937697,-0.0239 -3.268306,-0.33998 -3.587647,-0.85218 -0.22352,-0.35851 -0.207899,-0.52389 0.0656,-0.69453 0.25015,-0.15608 0.270203,-0.27885 0.06615,-0.40496 -0.500877,-0.30956 -0.322564,-1.57065 0.365194,-2.58278 0.361913,-0.5326 1.131879,-1.8681 1.711036,-2.96778 1.510051,-2.86722 1.791224,-3.23806 2.737067,-3.60995 0.46585,-0.18317 1.204185,-0.66171 1.640748,-1.06344 1.21031,-1.11371 1.823294,-1.10752 1.984375,0.02 0.120718,0.84503 0.216842,0.93338 1.09873,1.00994 0.910526,0.079 1.050292,-0.0205 2.415788,-1.71979 0.797142,-0.99203 1.823445,-2.41653 2.280674,-3.16556 0.523925,-0.8583 1.073706,-1.42272 1.486816,-1.5264 0.843732,-0.21176 0.850392,-0.6836 0.0097,-0.6836 -0.355214,0 -0.719429,-0.11907 -0.809366,-0.26459 -0.241223,-0.3903 -1.278834,-0.32148 -1.867659,0.12388 -0.723262,0.54705 -0.797042,0.51726 -1.289608,-0.52075 -0.241689,-0.50932 -0.523145,-0.92276 -0.625459,-0.91876 -0.102312,0.004 -0.48368,0.4256 -0.847482,0.93688 -0.363802,0.51128 -1.137708,1.17914 -1.719792,1.48414 -0.582083,0.30499 -1.590222,0.92519 -2.240306,1.37822 -0.650087,0.45303 -2.134039,1.36058 -3.297674,2.01678 -1.70044,0.95891 -2.337364,1.50419 -3.245046,2.77812 -1.846599,2.5917 -3.666929,6.59557 -5.141312,11.30847 -0.76254,2.43748 -1.475438,4.43178 -1.584224,4.43178 -0.108784,0 0.08179,-0.86321 0.423489,-1.91824 0.341704,-1.05502 1.056926,-3.33486 1.589387,-5.0663 0.532458,-1.73144 1.614524,-4.39742 2.404591,-5.9244 1.109919,-2.14515 1.368668,-2.85804 1.138166,-3.13578 -0.164087,-0.19769 -0.394076,-0.35945 -0.511098,-0.35945 -0.574389,0 -1.91552,3.25128 -3.165023,7.67292 -0.838533,2.96732 -1.785202,5.67619 -2.404057,6.87916 -0.561462,1.09141 -1.327724,2.69876 -1.702805,3.57188 -0.905576,2.10804 -3.04977,6.02544 -3.210214,5.86499 -0.07,-0.07 0.0737,-0.52529 0.319337,-1.01176 0.614211,-1.2164 0.252063,-0.7914 -2.003545,2.35127 -1.068438,1.48862 -1.985672,2.66353 -2.038298,2.6109 -0.05263,-0.0526 0.907377,-1.56824 2.133338,-3.36804 2.592617,-3.80614 3.31295,-5.19046 5.171902,-9.93924 1.105067,-2.82295 1.444487,-4.0833 1.771801,-6.57912 0.222681,-1.69798 0.351917,-3.1402 0.287189,-3.20492 -0.06473,-0.0647 -0.326382,0.45509 -0.581456,1.15515 -0.255074,0.70007 -0.750359,1.98723 -1.100635,2.86035 -0.350277,0.87313 -1.057775,2.77391 -1.572218,4.22397 -1.145617,3.22915 -1.648431,4.23778 -3.32928,6.67843 -1.793839,2.60473 -2.438589,3.05863 -0.862193,0.60698 1.145966,-1.78224 3.567885,-6.52817 3.567885,-6.99154 0,-0.42881 -0.64752,0.31221 -2.824772,3.23263 -2.532873,3.39743 -7.211866,8.37254 -8.598268,9.14242 -0.640826,0.35586 -0.412544,0.0533 0.839706,-1.11297 0.945886,-0.88093 1.603709,-1.60687 1.461831,-1.6132 -0.141879,-0.006 0.588004,-0.87471 1.621963,-1.92974 1.821726,-1.85884 5.382133,-6.86144 5.93322,-8.33654 0.396729,-1.06194 -1.888499,1.5082 -2.956304,3.32488 -1.05417,1.79348 -3.24546,4.16082 -5.196299,5.61376 -0.839228,0.62504 -1.924718,1.56382 -2.412201,2.08618 -0.487482,0.52236 -0.807877,0.80092 -0.711989,0.61901 0.262631,-0.49821 0.06238,-0.4293 -2.441862,0.84033 -2.091833,1.06054 -2.406444,1.32309 -3.333707,2.7821 -1.377225,2.16701 -1.690004,2.28134 -0.63196,0.23101 0.555165,-1.07583 1.647255,-2.45783 3.067397,-3.88167 4.153766,-4.16461 0.860739,-1.60824 -7.68457,5.96552 -5.666778,5.0225 -4.759793,3.88149 1.530232,-1.92508 3.676005,-3.39346 5.508301,-4.90307 8.314666,-6.85033 2.889242,-2.00476 3.835252,-2.78427 3.378995,-2.78427 -0.201175,0 -0.752123,0.28504 -1.224329,0.63342 -0.472207,0.34838 -1.394395,0.76835 -2.049306,0.93326 -0.654912,0.16491 -2.58762,1.17398 -4.294906,2.24238 -1.707287,1.06839 -3.576434,2.18457 -4.15366,2.4804 -1.233257,0.63203 -2.910435,2.24425 -3.503526,3.36783 -0.230443,0.43656 -0.576267,1.38906 -0.768498,2.11667 l -0.349511,1.32291 0.123326,-1.41795 c 0.170069,-1.95538 1.329475,-3.69548 3.370246,-5.05826 1.919467,-1.28177 1.658086,-1.34709 -0.911398,-0.22778 -2.407476,1.04874 -3.090357,1.68904 -3.524557,3.30478 l -0.344661,1.28255 -0.005,-1.7198 -0.005,-1.71979 1.441397,-1.1781 c 4.170426,-3.40862 7.30686,-6.89169 6.205826,-6.89169 -0.145521,0 -0.264584,0.23813 -0.264584,0.52917 0,0.42475 -0.176389,0.52917 -0.893942,0.52917 -0.743818,0 -0.949157,0.1333 -1.222724,0.79375 -0.368199,0.88891 -0.901847,1.02639 -1.290227,0.33239 -0.240227,-0.42926 -0.300957,-0.4213 -0.873043,0.11447 -0.33817,0.31671 -1.180402,0.81774 -1.871626,1.11341 l -1.256771,0.53759 0.03603,-14.21196 c 0.01982,-7.81657 0.08763,-13.94406 0.150693,-13.61664 0.06306,0.32743 0.149437,0.59532 0.19194,0.59532 0.304944,0 2.922229,-1.56831 2.998339,-1.79664 0.05261,-0.15783 -0.149914,-0.53252 -0.450051,-0.83266 -0.672266,-0.67227 -0.673222,-0.71522 -0.01972,-0.88612 0.289289,-0.0756 0.64353,-0.44672 0.787201,-0.8246 0.143672,-0.37789 0.461196,-0.68707 0.705611,-0.68707 0.582029,0 2.427023,1.94925 2.637049,2.78606 0.128197,0.51078 0.335025,0.65353 0.946921,0.65353 0.651028,0 0.755798,-0.0854 0.622012,-0.5069 -0.08849,-0.2788 -0.0322,-0.58644 0.125091,-0.68365 0.186163,-0.11505 0.224408,-0.72091 0.109578,-1.73587 -0.171896,-1.51937 -0.158101,-1.5661 0.540741,-1.8318 0.750558,-0.28536 1.201898,-0.16895 1.201898,0.30999 0,0.29223 1.785604,2.39544 2.166658,2.55205 0.347999,0.14302 0.245145,-0.80395 -0.136636,-1.25799 -0.812991,-0.96687 -1.120226,-3.46042 -0.426365,-3.46042 0.305395,0 3.562533,3.21325 3.7567,3.70609 0.137797,0.34975 0.187732,0.34953 0.436282,-0.002 0.404481,-0.57194 0.35277,-2.39974 -0.08175,-2.88959 -0.600049,-0.67645 -1.754136,-3.66088 -1.585558,-4.10018 0.160322,-0.4178 1.739461,-0.84826 2.159489,-0.58867 0.516356,0.31912 1.694828,2.28268 1.767538,2.94505 0.09776,0.89056 0.674892,1.54742 0.674892,0.76812 0,-0.29233 0.174807,-0.76263 0.388461,-1.0451 0.736967,-0.97436 0.256826,-2.41516 -0.93751,-2.81328 -0.698401,-0.2328 0.626242,-4.40608 1.408945,-4.43887 0.109141,-0.005 0.198438,0.20676 0.198438,0.46963 0,0.26287 0.597567,1.32611 1.327927,2.36277 2.039142,2.89429 3.866185,3.72803 5.002869,2.28298 0.301604,-0.38343 0.54837,-0.80525 0.54837,-0.93738 0,-0.13213 -0.535781,-0.81303 -1.190625,-1.51311 -0.654843,-0.70008 -1.190625,-1.35485 -1.190625,-1.45504 0,-0.21538 0.440492,-0.77988 1.23865,-1.58736 0.468794,-0.47428 0.549875,-0.78758 0.43175,-1.66828 -0.127784,-0.9527 -0.0632,-1.13824 0.531989,-1.52822 1.089311,-0.71374 1.800469,-0.44158 2.230708,0.85371 0.205425,0.61847 0.542173,1.12448 0.748326,1.12448 0.231532,0 0.376375,0.27817 0.378878,0.72761 0.0052,0.94196 0.306427,1.39451 1.266074,1.90238 0.42891,0.227 1.165717,0.63121 1.637342,0.89826 0.629534,0.35645 0.935765,0.40727 1.151885,0.19115 0.373819,-0.37382 -0.03487,-1.08414 -0.86645,-1.50594 -0.902105,-0.45758 -1.111782,-0.7451 -1.651905,-2.26517 -0.54134,-1.5235 -0.445624,-3.31716 0.190032,-3.56109 0.259159,-0.0995 0.315029,-0.47704 0.206354,-1.39464 -0.194366,-1.6411 0.187102,-2.31135 1.519708,-2.67019 1.649241,-0.44416 2.892909,0.19114 2.892909,1.47771 0,1.44511 1.540521,5.01212 1.976393,4.57625 0.243329,-0.24334 -0.40286,-4.5151 -0.79883,-5.28082 -0.556633,-1.0764 -0.481968,-1.80678 0.2115,-2.06886 0.327422,-0.12375 0.683797,-0.17292 0.791943,-0.10927 0.108146,0.0636 0.703458,0.17266 1.322916,0.24226 0.80503,0.0904 1.297702,0.33158 1.727243,0.8454 0.605829,0.72469 0.695314,0.97601 0.98017,2.75276 0.169643,1.05811 1.628161,3.41672 2.231348,3.60837 0.278984,0.0886 0.316423,-0.007 0.148664,-0.38065 -0.348901,-0.77665 -0.598885,-8.97665 -0.283282,-9.29226 0.170749,-0.17075 1.47429,0.64852 1.961245,1.23263 0.19109,0.22922 0.688615,1.13113 1.105609,2.00426 0.557967,1.1683 1.496542,2.31964 3.554355,4.36008 l 2.79618,2.77259 0.911328,-0.49078 c 0.501229,-0.26993 0.974111,-0.65439 1.050843,-0.85436 0.255439,-0.66566 2.272792,-0.37613 2.272792,0.32619 0,0.20271 0.12498,0.36857 0.27772,0.36857 0.78397,0 3.55171,-1.86063 4.57273,-3.07405 0.40001,-0.47538 1.49446,-1.1239 2.821,-1.67159 2.11549,-0.87342 2.16372,-0.91343 2.01249,-1.66956 -0.22811,-1.14053 0.33283,-3.0138 1.17119,-3.91128 0.54856,-0.58723 0.97272,-0.78602 1.67713,-0.78602 1.03092,0 1.49066,0.51849 1.49066,1.68119 0,0.59644 0.16621,0.69447 1.78593,1.05333 1.009574,0.22368 2.366884,0.33549 3.122304,0.2572 1.10003,-0.11401 1.67812,0.007 3.26885,0.68385 1.06287,0.45229 2.30698,0.82417 2.76468,0.8264 1.15311,0.006 1.33008,0.16499 2.34878,2.11533 0.84516,1.61811 0.94631,1.71309 1.75486,1.64799 1.13249,-0.0912 3.21085,1.28985 3.21085,2.13354 0,0.36956 0.41415,0.91546 1.12842,1.48739 0.62064,0.49696 1.66244,1.61535 2.31511,2.48531 1.57902,2.10471 6.47402,7.0659 7.80126,7.90674 0.58208,0.36877 1.65146,1.16249 2.3764,1.76382 0.72494,0.60133 1.40839,1.09333 1.51878,1.09333 0.1104,0 0.9949,0.54371 1.96557,1.20826 2.12782,1.45676 4.21842,2.52454 6.17779,3.1553 0.80036,0.25766 2.40771,0.8827 3.57187,1.38898 1.16417,0.50629 2.95011,1.27319 3.96875,1.70421 1.01865,0.43103 2.34138,1.01318 2.9394,1.29368 0.59802,0.28049 1.43146,0.5126 1.85208,0.51579 1.48426,0.0113 3.1714,1.09655 7.37936,4.74686 2.2703,1.96943 6.32208,6.31133 7.39118,7.9204 1.50283,2.26189 1.558,2.68641 0.99642,7.66805 -0.35098,3.11347 -0.71426,4.33804 -1.63369,5.5069 -0.29491,0.37492 -0.53882,0.99304 -0.54201,1.3736 -0.008,0.99956 -0.95072,2.93679 -1.91315,3.93307 -1.05866,1.0959 -1.34019,1.0848 -1.208,-0.0476 0.14489,-1.24104 -0.14977,-0.96462 -1.10477,1.0364 -0.44513,0.9327 -1.41345,2.35682 -2.15181,3.1647 -1.98658,2.17363 -2.29658,1.94282 -1.15709,-0.86149 0.3638,-0.89532 0.65718,-2.07671 0.65196,-2.62531 -0.009,-0.98753 -0.0183,-0.97904 -0.89132,0.85464 -0.48499,1.01865 -1.23515,2.33019 -1.66702,2.91455 -0.86174,1.16601 -3.66898,3.23995 -3.97343,2.9355 -0.10512,-0.10512 0.31163,-1.12196 0.92611,-2.25964 0.79853,-1.47843 1.11724,-2.37993 1.11724,-3.16019 0,-0.60042 -0.0643,-1.09168 -0.14283,-1.09168 -0.0786,0 -0.62588,0.24644 -1.21626,0.54763 -0.59039,0.30119 -1.13811,0.48295 -1.21715,0.40391 -0.079,-0.0791 0.31719,-0.81293 0.88051,-1.63086 0.89701,-1.3024 1.04583,-1.73874 1.19813,-3.51276 0.0957,-1.11409 0.0889,-2.11794 -0.0149,-2.23077 -0.10385,-0.11282 -0.49333,0.5006 -0.86551,1.36318 -0.37314,0.8648 -0.9409,1.70972 -1.26569,1.88354 -0.58624,0.31375 -0.58814,0.30791 -0.40699,-1.25293 0.1728,-1.48884 0.14726,-1.59093 -0.50508,-2.01835 -0.79943,-0.52381 -0.753,-0.60025 -1.30219,2.14418 -0.27712,1.3848 -0.64046,2.26322 -1.31326,3.175 -1.54738,2.09699 -3.54785,3.77407 -4.50183,3.77407 -0.50052,0 -0.5103,-0.25903 -0.0517,-1.36976 0.14531,-0.35194 0.0694,-0.41396 -0.36686,-0.29987 -0.73077,0.1911 -0.69399,-0.11279 0.18394,-1.51972 0.64911,-1.04022 1.12496,-2.06151 1.94074,-4.16529 0.31784,-0.81966 0.29831,-2.10042 -0.0352,-2.30652 -0.14916,-0.0922 -0.50485,0.36161 -0.79169,1.01007 -0.49678,1.12307 -2.34885,3.09484 -2.90697,3.09484 -0.35474,0 -0.33284,-0.61738 0.0519,-1.46171 0.25497,-0.55958 0.24514,-0.73646 -0.0511,-0.91954 -0.29623,-0.18309 -0.30606,-0.35996 -0.0511,-0.91955 0.37133,-0.81496 0.40936,-1.4617 0.086,-1.4617 -0.12635,0 -0.42922,0.71101 -0.67305,1.58002 -0.55114,1.96426 -2.28833,5.45476 -3.19576,6.42121 -0.89362,0.95173 -2.13072,1.57566 -2.92158,1.4735 l -0.63497,-0.082 0.78483,-1.1643 c 0.93231,-1.38307 1.04192,-2.03462 0.27306,-1.62314 -0.60784,0.32531 -1.34031,0.35967 -1.34031,0.0629 0,-0.11606 0.59383,-1.32801 1.31963,-2.69322 1.47597,-2.77628 1.62392,-3.4761 0.24142,-1.14199 -1.25296,2.11541 -3.41314,3.50409 -3.41314,2.19414 0,-0.35278 -0.17639,-0.52916 -0.52916,-0.52916 -0.6984,0 -0.68275,-0.0588 0.38953,-1.46357 0.50528,-0.66196 1.16013,-1.98522 1.45521,-2.94058 0.64477,-2.08753 0.64157,-1.85666 0.028,-2.01713 -0.33252,-0.0869 -0.7618,0.13133 -1.24013,0.6306 -1.05924,1.10561 -1.47186,1.00934 -1.26333,-0.29474 0.20978,-1.31193 -0.23081,-1.41396 -0.85686,-0.19844 -0.24359,0.47294 -0.74238,1.25387 -1.10843,1.73539 -1.03065,1.35578 -2.96019,2.16482 -2.96019,1.24117 0,-0.21828 -0.11907,-0.39687 -0.26459,-0.39687 -0.44022,0 -0.30684,-0.41972 0.64561,-2.03156 0.5006,-0.84717 0.9924,-1.8975 1.09288,-2.33407 0.17495,-0.76006 0.14791,-0.74661 -0.6373,0.31698 -0.81478,1.10365 -1.71279,1.77785 -2.15568,1.61841 -0.12727,-0.0458 0.11735,-0.89851 0.5436,-1.89488 0.42626,-0.99637 0.71422,-1.90994 0.63992,-2.03016 -0.0743,-0.12023 -0.52068,-0.29906 -0.99196,-0.39741 -0.47127,-0.0984 -1.0585,-0.43494 -1.30495,-0.74797 l -0.44808,-0.56913 -0.88743,0.85989 c -0.48808,0.47295 -1.09011,0.8599 -1.33785,0.8599 -0.58389,0 -0.57354,-0.0597 0.21104,-1.2158 0.3638,-0.53609 0.66145,-1.11977 0.66145,-1.29706 0,-0.17729 -0.73426,-0.77556 -1.6317,-1.32949 -1.52571,-0.94172 -1.82218,-1.02236 -4.56406,-1.24142 -7.50057,-0.59924 -7.70445,-0.59461 -9.35346,0.21217 -0.98281,0.48085 -2.29598,1.5302 -3.78344,3.02333 l -2.278184,2.28688 1.885234,3.15413 c 1.03688,1.73478 2.44788,3.99312 3.13555,5.01855 1.50633,2.2462 1.90194,3.3932 1.35796,3.93718 -0.20808,0.20807 -0.37831,0.42097 -0.37831,0.47311 0,0.0521 0.53804,0.66437 1.19565,1.36053 0.65761,0.69616 1.50614,1.88239 1.88563,2.63608 0.3795,0.75369 0.85599,1.46696 1.05887,1.58505 0.20289,0.11808 0.29661,0.33166 0.20826,0.47461 -0.0884,0.14295 -0.0193,0.43019 0.15341,0.63831 0.26714,0.32188 0.44792,0.27628 1.2105,-0.30537 0.79501,-0.60638 0.9158,-0.63338 1.06729,-0.23859 0.1013,0.26397 -0.0591,0.7561 -0.39398,1.2091 -0.55747,0.75402 -0.72585,1.31453 -0.39489,1.31453 0.0934,0 0.79558,-0.53452 1.56027,-1.18782 1.03181,-0.8815 1.42785,-1.0901 1.53576,-0.80891 0.1852,0.48263 -0.17097,1.73368 -0.74144,2.60433 -0.84241,1.28568 0.55112,0.51474 1.99225,-1.10216 1.46156,-1.63983 1.89886,-1.57572 1.56867,0.22998 -0.20616,1.12739 -0.0151,1.65754 0.55341,1.53532 0.56139,-0.1207 0.62168,1.94537 0.10238,3.50882 -0.23899,0.71952 -0.39501,1.42589 -0.34672,1.5697 0.11276,0.33582 3.47129,-3.62547 4.06796,-4.79804 0.59648,-1.17219 0.63705,-1.20508 0.92497,-0.74981 0.39115,0.6185 0.27944,2.12058 -0.27492,3.69651 -0.59034,1.67822 -0.65807,2.53493 -0.22173,2.8046 0.44972,0.27795 1.19892,-0.78088 1.71825,-2.42838 0.49051,-1.55607 1.01092,-1.83301 1.42045,-0.75587 0.39803,1.04691 0.30848,2.35785 -0.26398,3.86446 l -0.52201,1.37382 1.21545,-1.17255 c 0.6685,-0.6449 1.44476,-1.67856 1.72502,-2.29702 0.28026,-0.61846 0.61576,-1.12448 0.74555,-1.12448 0.6821,0 0.57695,3.50822 -0.16247,5.42106 -0.11189,0.28945 0.5361,-0.1868 1.43998,-1.05833 1.19232,-1.14966 1.81974,-2.01891 2.28581,-3.16686 0.35331,-0.87024 0.75726,-1.62055 0.89766,-1.66735 0.1404,-0.0468 0.40011,0.35379 0.57715,0.8902 0.42189,1.27837 0.15744,3.45905 -0.66703,5.50022 -0.35456,0.87782 -0.61228,1.62841 -0.57269,1.668 0.0396,0.0396 0.49251,-0.21381 1.00651,-0.56308 0.53839,-0.36584 1.26105,-1.25986 1.70475,-2.10898 0.42361,-0.81066 0.88927,-1.43511 1.03479,-1.38767 0.44485,0.14503 0.45477,2.83199 0.0154,4.17524 -0.22676,0.69328 -0.41229,1.33555 -0.41229,1.42726 0,0.40569 1.70868,-1.11017 3.07644,-2.72927 1.6013,-1.89555 1.95064,-2.17358 1.95064,-1.55247 0,0.27322 0.17477,0.34846 0.56961,0.2452 0.53579,-0.14011 0.55896,-0.0824 0.39025,0.97268 -0.0986,0.6169 -0.48834,1.73687 -0.86599,2.48883 l -0.68663,1.3672 0.70346,-0.65102 0.70346,-0.65102 0.15294,0.58487 c 0.0841,0.32168 0.27087,0.58487 0.41498,0.58487 0.14412,0 0.19646,0.17091 0.1163,0.37978 -0.0802,0.20888 -0.0185,0.42221 0.13711,0.47407 0.56546,0.18848 -0.0791,1.67837 -1.23313,2.85052 -0.69743,0.70836 -1.24362,1.54497 -1.34875,2.06593 -0.13784,0.68299 -0.64777,1.25585 -2.31896,2.60515 -2.69698,2.1775 -4.53585,3.09199 -7.0534,3.50775 -1.0914,0.18024 -2.16297,0.3669 -2.38125,0.41481 -0.21828,0.0479 -1.00853,-0.0601 -1.75612,-0.24002 z M 87.850756,206.92242 c 0.28414,-0.18012 0.27125,-0.25505 -0.0661,-0.38452 -0.27103,-0.104 -0.41906,-0.48535 -0.41906,-1.07954 0,-0.93994 -0.35583,-1.44447 -0.66544,-0.94351 -0.0951,0.15381 -0.40335,0.2065 -0.68509,0.11708 -0.40628,-0.12895 -0.59643,0.0389 -0.91927,0.81158 -0.45656,1.0927 -0.46635,1.06024 0.42741,1.41701 0.81752,0.32633 1.86643,0.35423 2.3276,0.0619 z M 41.171882,196.68428 c 1.411735,-0.93734 6.241581,-5.98358 6.241581,-6.52123 0,-0.1708 -0.386953,0.0541 -0.859896,0.49985 -0.472943,0.44571 -1.901693,1.4818 -3.175,2.30242 -1.273307,0.82061 -2.315104,1.58935 -2.315104,1.7083 0,0.11894 -1.012032,1.078 -2.248959,2.13124 -1.236927,1.05324 -2.248958,2.0285 -2.248958,2.16724 0,0.30834 2.763246,-1.06407 4.606336,-2.28782 z m 123.212058,-8.15277 c 0.65273,-1.07044 0.63483,-1.66218 -0.0908,-3.00135 -0.771,-1.42296 -3.19209,-4.24364 -4.40708,-5.13446 -1.17657,-0.86266 -5.31635,-3.16004 -5.31635,-2.95033 0,0.0844 0.90663,1.21351 2.01474,2.50917 1.10811,1.29565 2.31089,2.97476 2.67284,3.73135 0.36196,0.7566 0.81418,1.55422 1.00494,1.7725 0.19077,0.21829 0.77078,1.24417 1.28893,2.27975 0.8631,1.72503 1.00026,1.87175 1.63614,1.7502 0.40372,-0.0772 0.90431,-0.47745 1.19663,-0.95683 z m -68.104744,-1.98358 c 0.33173,-0.9855 0.33553,-1.21416 0.0253,-1.52436 -0.42035,-0.42036 -3.70127,-1.07094 -4.75436,-0.94275 -0.67171,0.0818 -0.60009,0.18537 1.32292,1.91364 1.19204,1.07132 2.23636,1.80356 2.52446,1.77005 0.32294,-0.0376 0.62515,-0.45458 0.88165,-1.21658 z m -42.799009,-2.25732 c 1.191138,-2.51487 1.568735,-3.62156 1.076121,-3.15397 -0.587039,0.55722 -1.44798,2.22091 -2.402613,4.64283 -0.84928,2.15464 0.111612,1.07613 1.326492,-1.48886 z M 139.98805,183.064 c 1.99209,-0.32921 2.41167,-0.78371 2.40722,-2.60755 -0.005,-2.0355 -0.22018,-2.74882 -0.75876,-2.51488 -0.23554,0.10231 -1.11827,0.33708 -1.96163,0.52172 -2.42558,0.53102 -2.82399,0.97213 -2.79564,3.09529 0.0212,1.58666 0.4389,2.19951 1.28631,1.88726 0.21828,-0.0804 1.0384,-0.25227 1.8225,-0.38184 z m -6.97996,-3.49258 c 1.74572,-2.02545 1.84426,-2.38837 1.0936,-4.02802 -0.35818,-0.78236 -1.1195,-1.93741 -1.69183,-2.56676 -1.70125,-1.87076 -3.28542,-4.48062 -3.50497,-5.77428 -0.11115,-0.65496 -0.2161,-0.93753 -0.23322,-0.62792 -0.0533,0.96455 -0.59263,1.18722 -2.15698,0.89055 -1.2116,-0.22978 -1.63741,-0.49259 -3.03804,-1.87503 -1.77016,-1.74718 -3.56185,-2.99572 -4.66314,-3.24951 -0.77894,-0.17951 -0.82351,-0.053 -1.23962,3.52006 -0.10896,0.93559 -0.33647,1.74719 -0.50557,1.80356 -0.87142,0.29047 -1.6734,1.30129 -2.2821,2.87636 -0.63554,1.6445 -0.65226,1.80305 -0.26837,2.54542 0.30106,0.58218 0.48746,0.71362 0.70438,0.4967 0.87568,-0.87568 2.04124,0.12436 2.04124,1.75134 v 0.69851 l 0.73717,-0.70626 c 1.47231,-1.41056 3.44367,-1.05973 4.80748,0.85555 0.28987,0.40708 0.89197,0.89132 1.33801,1.07607 0.73235,0.30335 0.87334,0.27732 1.45431,-0.26848 0.53343,-0.50113 0.71248,-0.54701 1.04798,-0.26857 0.45503,0.37764 0.54417,1.47646 0.14005,1.72623 -0.61205,0.37827 -0.17775,0.60652 1.08289,0.56913 1.1578,-0.0343 1.42781,0.0576 1.91823,0.65308 1.11772,1.35721 1.98724,1.3308 3.2185,-0.0977 z m -75.100649,-0.79375 c -0.0734,-0.18191 -0.133453,-0.0331 -0.133453,0.33073 0,0.3638 0.06006,0.51263 0.133453,0.33072 0.0734,-0.1819 0.0734,-0.47955 0,-0.66145 z m 22.320903,-0.0834 c 0.488543,-1.28496 0.34194,-1.37743 -1.411758,-0.89045 -1.625497,0.45138 -1.153271,1.21682 0.948738,1.53783 0.112741,0.0172 0.321101,-0.27411 0.46302,-0.64738 z M 60.10153,174.14746 c 0.0066,-0.1819 -0.10713,-0.33073 -0.252651,-0.33073 -0.145521,0 -0.266208,0.20836 -0.268195,0.46302 -0.0021,0.25466 -0.06282,0.76068 -0.135178,1.12448 -0.116136,0.58389 -0.08608,0.56838 0.256262,-0.13229 0.213305,-0.43657 0.393198,-0.94258 0.399762,-1.12448 z m 48.08341,-1.06777 c 0.50191,-0.31915 0.90207,-1.62876 0.64916,-2.12455 -0.12504,-0.24514 -0.30097,-0.83413 -0.39095,-1.30887 -0.13828,-0.7296 -0.0434,-0.97024 0.61308,-1.55519 0.95645,-0.8522 2.91557,-4.73226 2.91557,-5.77434 0,-0.79434 -0.71301,-1.57595 -2.68991,-2.94872 -0.93414,-0.64866 -0.99548,-0.65704 -1.65365,-0.22579 -0.37594,0.24632 -0.68352,0.55705 -0.68352,0.69051 0,0.57571 0.78011,1.99576 1.42111,2.58688 0.82684,0.7625 0.86049,1.06612 0.19708,1.77821 -0.67719,0.72688 -0.97801,2.61987 -0.54493,3.42909 0.2883,0.53869 0.26615,0.70595 -0.15511,1.17144 -0.47206,0.52163 -1.07642,1.88366 -1.36124,3.06786 -0.0935,0.38865 0.0543,0.69593 0.47728,0.99218 0.69273,0.4852 0.76897,0.49919 1.20603,0.22129 z m -43.459602,-1.08928 c -0.06961,-0.0696 -0.332081,0.088 -0.583279,0.35028 -0.436375,0.4556 -0.430737,0.46124 0.126558,0.12656 0.320805,-0.19266 0.526328,-0.40723 0.456721,-0.47684 z m 4.780412,-4.25978 c -0.221361,-0.35817 -1.279009,-0.33265 -2.121445,0.0512 -0.531225,0.24204 -0.651843,0.44141 -0.520255,0.8599 0.09422,0.29964 0.238839,0.83226 0.321389,1.18359 0.145701,0.62013 0.184177,0.60271 1.316749,-0.59599 0.641665,-0.67913 1.093269,-1.35354 1.003562,-1.49869 z"
       id="path125" /></g></svg>
