<?xml version="1.0" encoding="UTF-8" standalone="no"?>
<!-- Created with Inkscape (http://www.inkscape.org/) -->

<svg
   width="171.89774mm"
   height="107.44342mm"
   viewBox="0 0 171.89774 107.44342"
   version="1.1"
   id="svg5"
   xml:space="preserve"
   xmlns:inkscape="http://www.inkscape.org/namespaces/inkscape"
   xmlns:sodipodi="http://sodipodi.sourceforge.net/DTD/sodipodi-0.dtd"
   xmlns="http://www.w3.org/2000/svg"
   xmlns:svg="http://www.w3.org/2000/svg"><sodipodi:namedview
     id="namedview7"
     pagecolor="#ffffff"
     bordercolor="#000000"
     borderopacity="0.25"
     inkscape:showpageshadow="2"
     inkscape:pageopacity="0.0"
     inkscape:pagecheckerboard="0"
     inkscape:deskcolor="#d1d1d1"
     inkscape:document-units="mm"
     showgrid="false" /><defs
     id="defs2" /><g
     inkscape:label="Layer 1"
     inkscape:groupmode="layer"
     id="layer1"
     transform="translate(-12.888081,-104.91629)"><path
       style="fill:#000000;stroke-width:0.264583"
       d="m 135.47857,212.00286 c -0.87312,-0.26147 -1.855,-0.6212 -2.18194,-0.79941 -0.98607,-0.53747 -1.62567,-2.18423 -1.93668,-4.98627 -0.25654,-2.31119 -0.90564,-4.5392 -1.2284,-4.21643 -0.0651,0.0651 -0.65531,1.05163 -1.31156,2.19227 -1.10068,1.91313 -1.16852,2.13543 -0.87506,2.86765 0.6667,1.66353 0.6286,2.18324 -0.22242,3.03427 -0.70251,0.7025 -0.9866,0.80219 -2.28625,0.80219 -1.82111,0 -2.92707,-0.44091 -4.36539,-1.74035 -1.32593,-1.1979 -1.86417,-2.16428 -1.86417,-3.34702 0,-1.18988 0.52084,-1.85185 2.20481,-2.80222 1.86133,-1.05048 2.18685,-1.80123 2.3841,-5.49856 0.0862,-1.61541 0.27013,-3.23549 0.40878,-3.60018 0.56851,-1.49529 -0.64546,-6.85668 -1.63887,-7.23789 -0.20478,-0.0786 -1.60984,-0.0146 -3.12234,0.14223 -1.51251,0.15681 -4.63345,0.36055 -6.93543,0.45275 l -4.1854,0.16765 0.16507,2.66981 c 0.0908,1.4684 0.28957,3.80091 0.44172,5.18336 0.15579,1.41536 0.1971,3.7935 0.0946,5.44315 -0.22355,3.59667 0.0126,4.29086 2.2539,6.62492 1.66817,1.73722 1.78987,1.97971 1.22773,2.44625 -0.91777,0.76167 -7.74064,1.10927 -9.24828,0.47116 -1.44072,-0.6098 -1.77852,-1.22331 -2.10717,-3.82705 -0.25896,-2.05161 -0.23573,-2.74969 0.1617,-4.85979 0.55929,-2.96951 0.42333,-3.79229 -1.28913,-7.80119 -1.425851,-3.33797 -1.982421,-5.15369 -1.982421,-6.46736 0,-0.54708 -0.0893,-1.04771 -0.19844,-1.1125 -0.10914,-0.0648 -0.91936,-0.19987 -1.8005,-0.30019 -1.57372,-0.17916 -1.60808,-0.16916 -1.94154,0.56521 -0.57172,1.25906 -2.39015,3.81088 -4.36572,6.12648 -5.459633,6.39932 -6.368677,7.87132 -6.67584,10.81009 -0.154792,1.48098 -0.125796,1.59212 0.526965,2.01983 0.824939,0.54052 2.278261,2.97634 2.281762,3.82431 0.0016,0.40901 -0.230659,0.69761 -0.725123,0.90069 -0.983959,0.40411 -7.085531,0.39489 -8.306157,-0.0126 -1.886958,-0.62987 -3.266567,-3.73422 -2.66278,-5.9917 0.175702,-0.65693 0.319458,-1.58701 0.319458,-2.06684 0,-1.34874 0.951852,-4.66885 2.092505,-7.29876 1.409557,-3.24989 3.171013,-6.14067 5.240054,-8.59959 l 1.735072,-2.06202 -0.398172,-0.83497 c -0.280588,-0.5884 -1.678056,-1.7298 -4.732253,-3.86513 -2.383745,-1.66659 -5.481209,-3.94157 -6.883252,-5.05553 -5.287743,-4.20122 -8.488577,-6.06396 -11.984805,-6.97462 -5.081704,-1.32361 -15.824412,-0.32508 -22.499938,2.09136 -6.198769,2.24386 -11.986884,6.29089 -14.503329,10.14068 -1.529071,2.33926 -1.875619,3.27382 -1.699864,4.58417 0.467731,3.4872 4.141487,3.59615 13.740657,0.40749 5.569108,-1.84996 6.718911,-2.13968 6.957769,-1.7532 0.51385,0.83143 -2.42834,3.00646 -7.14882,5.28481 -4.343547,2.09643 -6.695351,2.9748 -10.31875,3.85393 -3.052903,0.74072 -5.137282,0.81311 -6.779756,0.23548 -2.899567,-1.01974 -4.110054,-2.64524 -4.38156,-5.88375 -0.436334,-5.2046 2.742113,-11.38066 8.952356,-17.39538 8.668006,-8.39511 17.905978,-12.75129 33.032919,-15.57672 4.224552,-0.78906 6.023898,-1.02798 13.211501,-1.75421 7.295295,-0.73712 10.026591,-1.30296 16.554124,-3.42948 9.504007,-3.09621 14.279427,-3.82687 24.870838,-3.8054 7.8551,0.0159 11.83553,0.48039 17.94945,2.09443 13.33611,3.52065 13.74106,3.61148 16.74067,3.75463 5.05484,0.24122 10.7158,-1.05311 16.41773,-3.75378 5.64267,-2.67261 9.10366,-5.73519 11.19227,-9.90388 1.3328,-2.66017 1.68214,-4.84882 1.33237,-8.34751 -0.26548,-2.65552 -1.70754,-10.54978 -2.01929,-11.05421 -0.27325,-0.44213 -2.07835,-0.17456 -3.9921,0.59175 -1.15205,0.4613 -2.21488,0.73141 -2.50972,0.63783 -0.68939,-0.2188 -1.53105,-1.65472 -1.53227,-2.61414 -5.3e-4,-0.47618 -0.26651,-1.05641 -0.68366,-1.49183 -0.39816,-0.41559 -0.73947,-1.13837 -0.81895,-1.73427 -0.20719,-1.55355 0.54317,-2.3358 2.71602,-2.83143 2.22617,-0.50779 3.59674,-1.46903 4.5808,-3.21269 0.43141,-0.76441 0.94108,-1.44708 1.13261,-1.51705 0.19153,-0.07 1.08272,-0.10723 1.98043,-0.0828 1.3365,0.0364 1.80685,0.17765 2.59637,0.77985 2.36357,1.80277 4.16206,4.87412 6.98459,11.92782 2.55134,6.37599 3.41316,10.59163 3.11148,15.21999 -0.65088,9.98565 -8.14213,21.37263 -17.55814,26.68899 -1.82684,1.03145 -3.48584,1.72465 -10.52483,4.39771 -6.37265,2.42002 -8.94789,3.77517 -11.30762,5.95031 -1.12597,1.03789 -3.40363,3.52341 -5.06148,5.52337 -3.11516,3.75804 -5.2897,5.89176 -7.26005,7.12376 -1.12661,0.70443 -1.13771,0.72608 -0.97606,1.90316 0.58361,4.24977 1.39466,6.41739 3.96006,10.58375 2.35098,3.81812 2.50499,4.22991 2.92508,7.82117 0.21312,1.82194 0.57844,3.69469 0.81182,4.16166 0.23338,0.46698 1.00505,1.38483 1.71484,2.03967 0.70978,0.65485 1.36381,1.5105 1.45341,1.90144 0.14846,0.64783 0.0728,0.73465 -0.85376,0.97973 -2.06952,0.54738 -4.89106,0.58029 -6.57291,0.0767 z"
       id="path289" /></g></svg>
