<?xml version="1.0" encoding="UTF-8" standalone="no"?>
<!-- Created with Inkscape (http://www.inkscape.org/) -->

<svg
   width="195.5271mm"
   height="134.61552mm"
   viewBox="0 0 195.5271 134.61552"
   version="1.1"
   id="svg1"
   xml:space="preserve"
   xmlns="http://www.w3.org/2000/svg"
   xmlns:svg="http://www.w3.org/2000/svg"><defs
     id="defs1" /><g
     id="layer1"
     transform="translate(-6.0283872,-66.74674)"><path
       style="fill:#000000"
       d="m 49.420055,201.11442 c -7.707713,-0.71866 -12.841656,-2.21227 -20.29144,-5.90336 -8.326951,-4.12569 -11.475933,-5.11689 -18.33284,-5.77059 C 7.4593346,189.12239 7.2696393,189.07243 6.6635936,188.35219 6.0643274,187.64 6.0283875,187.40267 6.0283875,184.15765 v -3.43963 l 0.7733974,-0.7734 c 0.6786299,-0.67863 0.9631597,-0.7734 2.3220454,-0.7734 3.0165417,0 7.9941737,0.73297 11.9054177,1.75309 3.373896,0.87998 6.265863,2.02518 12.14767,4.81043 2.780702,1.31676 5.99539,2.71004 7.14375,3.09618 7.773195,2.61376 18.93176,2.86746 27.091053,0.61595 2.66696,-0.73594 4.930383,-1.65569 9.657292,-3.92427 10.841704,-5.20327 15.952519,-6.42933 26.855207,-6.44246 5.54908,-0.007 6.96503,0.0771 9.83557,0.58208 6.02942,1.06064 9.90625,2.40377 16.75505,5.80481 7.9442,3.945 11.72576,4.9949 19.71146,5.47263 3.25846,0.19493 9.5407,-0.25469 12.57382,-0.8999 1.31306,-0.27931 3.39665,-0.86061 4.63021,-1.29177 2.16487,-0.75668 3.18544,-1.20385 8.82099,-3.86498 5.11806,-2.41677 8.00819,-3.49907 11.78858,-4.4146 2.73042,-0.66125 7.70757,-1.29719 10.15243,-1.29719 1.65476,0 1.88514,0.0688 2.58974,0.7734 l 0.7734,0.7734 v 3.55614 c 0,4.7637 0.0528,4.70678 -4.79082,5.16854 -6.56357,0.62574 -10.24614,1.79146 -18.49284,5.8539 -7.63636,3.76179 -13.01688,5.25142 -21.19263,5.86733 -3.44985,0.25989 -5.29434,0.26337 -8.59896,0.0162 -8.4742,-0.6338 -13.69869,-2.07261 -21.22449,-5.84518 -4.74949,-2.38085 -8.6387,-3.97887 -11.39914,-4.68375 -5.41254,-1.3821 -12.12242,-1.76238 -18.28399,-1.03626 -5.505792,0.64885 -8.722583,1.66078 -15.29704,4.81212 -6.447009,3.09025 -9.736144,4.37569 -13.673214,5.34367 -5.748728,1.41341 -12.992495,1.92082 -19.182291,1.34368 z M 49.287763,180.9959 c -7.065642,-0.58551 -12.360294,-2.15692 -20.669204,-6.13445 -3.184021,-1.52421 -6.503504,-3.03302 -7.376629,-3.35291 -2.656692,-0.97334 -6.723404,-1.82149 -10.426244,-2.1745 -3.3574481,-0.32009 -3.5456835,-0.36951 -4.1520924,-1.09019 -0.5992662,-0.71218 -0.6352061,-0.94951 -0.6352061,-4.19453 v -3.43964 l 0.7733974,-0.77339 c 0.6934438,-0.69345 0.9481941,-0.7734 2.4642181,-0.7734 0.929951,0 2.992939,0.17386 4.584415,0.38637 7.324025,0.97794 10.574511,2.01982 19.430053,6.22788 7.556552,3.5908 10.955186,4.55555 17.727084,5.03212 7.570437,0.53276 14.535021,-0.37825 20.218949,-2.64477 1.030567,-0.41095 3.659696,-1.60404 5.842509,-2.65132 7.35521,-3.52891 11.072415,-4.81207 16.949056,-5.8507 2.965343,-0.5241 4.291957,-0.60354 9.906151,-0.59319 10.97408,0.0202 16.35648,1.31283 26.59062,6.38589 8.87597,4.39981 12.8552,5.3815 21.96042,5.41774 9.28659,0.037 12.56488,-0.76455 23.00325,-5.62408 5.69898,-2.65313 9.26181,-4.01871 12.48472,-4.78522 2.86206,-0.68069 7.6718,-1.30072 10.09004,-1.30072 1.80846,0 2.01352,0.0581 2.7288,0.7734 l 0.7734,0.77339 v 3.55615 c 0,4.76369 0.0528,4.70678 -4.79082,5.16854 -6.09874,0.58142 -10.55866,1.90861 -16.66293,4.95859 -8.85368,4.4237 -14.72819,6.1329 -23.27558,6.77207 -3.34592,0.25021 -5.14838,0.24758 -8.49352,-0.0124 -8.83721,-0.68674 -13.20237,-1.92257 -21.78653,-6.16799 -5.92653,-2.93106 -8.8741,-4.04502 -12.71064,-4.80366 -7.71734,-1.52603 -16.323487,-1.22807 -23.140395,0.80116 -2.678516,0.79732 -4.06839,1.36807 -8.610799,3.53596 -5.087163,2.42789 -6.094798,2.86456 -8.851701,3.83602 -7.230641,2.54789 -15.230389,3.46388 -23.944792,2.74175 z m 0.661458,-22.63067 c -1.802123,-0.2246 -5.437684,-0.88504 -6.448536,-1.17146 l -1.024578,-0.29031 4.993328,-2.97664 c 2.74633,-1.63715 7.672234,-4.56168 10.946453,-6.49894 3.274219,-1.93727 7.084219,-4.20245 8.466667,-5.03374 1.382447,-0.83129 5.192447,-3.09596 8.466666,-5.03259 3.274219,-1.93663 7.989948,-4.73769 10.479399,-6.22457 2.48945,-1.48688 5.882731,-3.44646 7.540625,-4.35461 2.847813,-1.55997 7.688265,-4.25561 7.852205,-4.37289 0.0414,-0.0297 -1.399935,-2.71874 -3.203077,-5.97577 -8.75172,-15.80828 -11.813726,-21.376791 -12.422092,-22.590611 -1.935624,-3.86199 -2.006484,-7.42528 -0.217398,-10.93218 0.783519,-1.53582 3.224393,-3.94051 4.631695,-4.56303 0.658435,-0.29125 3.13563,-0.88844 5.504878,-1.32707 8.231834,-1.52402 21.513404,-3.97455 22.828554,-4.21201 0.7276,-0.13137 4.59713,-0.84579 8.59896,-1.58759 4.00182,-0.7418 7.93088,-1.46723 8.73125,-1.61207 0.80036,-0.14483 1.99099,-0.36123 2.64583,-0.48089 14.54302,-2.65737 13.63179,-2.52856 15.73967,-2.22489 2.61056,0.37609 4.68691,1.41649 6.48533,3.24963 4.56826,4.65643 4.45579,11.75775 -0.25743,16.25339 -2.78079,2.65243 -2.0647,2.46779 -28.31757,7.30175 -4.00182,0.73685 -7.81182,1.45046 -8.46667,1.58579 -0.65484,0.13532 -2.64914,0.51317 -4.43177,0.83967 -1.78263,0.32649 -3.24114,0.67768 -3.24114,0.78042 0,0.14791 5.80857,10.679321 12.09664,21.932201 1.83809,3.28938 13.91875,24.98557 17.7022,31.79217 2.2373,4.02501 4.06782,7.4039 4.06782,7.50864 0,0.25125 -3.84634,-0.0918 -6.20377,-0.55323 -3.95687,-0.77458 -7.18829,-1.95372 -13.07584,-4.77134 -9.28428,-4.44321 -14.33325,-5.76148 -24.11205,-6.29557 -2.73919,-0.14961 -9.044341,0.24433 -12.302751,0.76866 -5.468474,0.87996 -8.47984,1.93121 -16.272248,5.68054 -9.219502,4.43599 -12.657844,5.307 -21.43125,5.42908 -2.983177,0.0415 -5.840677,0.0235 -6.35,-0.0399 z M 158.17721,142.49906 c -3.54548,-1.04778 -5.65547,-2.29428 -8.25198,-4.87494 -1.98038,-1.9683 -2.46424,-2.64031 -3.62499,-5.03459 -1.76794,-3.64673 -2.27694,-6.1546 -2.08814,-10.28826 0.1583,-3.46571 0.76399,-5.7826 2.20467,-8.43335 2.65086,-4.8774 6.51462,-8.09145 11.87932,-9.88175 1.60275,-0.53487 2.36856,-0.61771 5.68854,-0.6154 3.29454,0.002 4.09441,0.0887 5.6626,0.6118 5.4329,1.81218 9.61156,5.36093 11.99619,10.18782 1.20329,2.43567 1.67058,4.01354 1.99175,6.72555 0.70856,5.98303 -1.41802,12.18014 -5.62762,16.39959 -4.16934,4.17909 -8.39535,5.90469 -14.39597,5.87828 -2.60937,-0.0115 -3.61077,-0.13583 -5.43437,-0.67475 z"
       id="path1" /></g></svg>
