<?xml version="1.0" encoding="UTF-8" standalone="no"?>
<!-- Created with Inkscape (http://www.inkscape.org/) -->

<svg
   width="62.444298mm"
   height="62.417336mm"
   viewBox="0 0 62.444298 62.417336"
   version="1.1"
   id="svg5"
   xml:space="preserve"
   xmlns:inkscape="http://www.inkscape.org/namespaces/inkscape"
   xmlns:sodipodi="http://sodipodi.sourceforge.net/DTD/sodipodi-0.dtd"
   xmlns="http://www.w3.org/2000/svg"
   xmlns:svg="http://www.w3.org/2000/svg"><sodipodi:namedview
     id="namedview7"
     pagecolor="#ffffff"
     bordercolor="#000000"
     borderopacity="0.25"
     inkscape:showpageshadow="2"
     inkscape:pageopacity="0.0"
     inkscape:pagecheckerboard="0"
     inkscape:deskcolor="#d1d1d1"
     inkscape:document-units="mm"
     showgrid="false" /><defs
     id="defs2" /><g
     inkscape:label="Layer 1"
     inkscape:groupmode="layer"
     id="layer1"
     transform="translate(-94.405436,-66.671453)"><path
       style="fill:#000000;stroke-width:0.264583"
       d="m 148.62383,128.5025 c -3.61291,-1.85858 -15.30552,-12.84341 -24.00244,-22.54951 -7.09575,-7.919141 -11.30693,-12.219031 -12.62105,-12.886911 -0.58208,-0.29584 -1.6349,-0.94807 -2.33958,-1.44941 l -1.28126,-0.91152 -2.69001,2.61718 c -3.0612,2.97833 -3.75552,3.28844 -5.55882,2.48282 -0.64189,-0.28676 -1.991291,-1.42632 -3.261375,-2.75419 -2.263988,-2.367 -2.724957,-3.32858 -2.343955,-4.889461 0.11849,-0.485428 3.601274,-4.149522 10.41401,-10.95616 10.74174,-10.732109 10.85683,-10.826392 12.71677,-10.41788 0.96824,0.212662 5.49163,4.604284 6.00297,5.828115 0.66256,1.585725 0.27498,2.38236 -2.59357,5.330731 l -2.61718,2.690013 0.91152,1.281252 c 0.50133,0.704689 1.15357,1.757502 1.4494,2.339585 0.65964,1.297897 4.86704,5.424845 12.88691,12.640485 10.17385,9.153621 21.23114,20.966241 22.69147,24.241551 2.07323,4.64993 -3.24097,9.68999 -7.76381,7.36331 z m 3.82184,-1.87995 c 1.68885,-0.70564 2.63996,-2.73386 2.06092,-4.39486 -0.15419,-0.44232 -1.20868,-2.02289 -2.3433,-3.51238 -2.56373,-3.36556 -15.85092,-16.74629 -22.3907,-22.548331 l -4.71732,-4.18519 -2.6261,2.61625 c -1.44436,1.43893 -2.59578,2.69877 -2.55872,2.79962 0.0371,0.10086 2.37087,2.747851 5.18624,5.882201 9.06595,10.09313 21.97041,22.33533 24.69569,23.4283 0.88605,0.35536 1.69982,0.32949 2.69329,-0.0856 z m -30.65486,-37.729401 -1.72143,-1.721432 -2.57463,2.574632 -2.57463,2.57462 1.70892,1.72424 1.70891,1.72424 2.58714,-2.57744 2.58715,-2.57744 z m -9.85193,-4.974811 c 5.49083,-5.497859 9.98334,-10.097097 9.98334,-10.220529 0,-0.412386 -4.58771,-4.91878 -5.00753,-4.91878 -0.5273,0 -20.392473,19.83947 -20.392473,20.36609 0,0.60822 4.269553,4.76933 4.893633,4.76933 0.35751,0 3.90969,-3.37431 10.52303,-9.996111 z m -11.92416,5.445271 c -0.174628,-0.17462 -0.317503,-0.50276 -0.317503,-0.7292 0,-0.535783 16.147673,-16.68038 16.683553,-16.68038 0.5254,0 1.04353,0.519703 1.04353,1.046705 0,0.535782 -16.14767,16.680375 -16.68355,16.680375 -0.2247,0 -0.55141,-0.14287 -0.72603,-0.3175 z m 16.016,-1.066831 c 1.49407,-1.488989 2.7165,-2.899875 2.7165,-3.135303 0,-0.333266 -1.06839,-2.072466 -1.76659,-2.875773 -0.12,-0.138064 -6.96466,6.640357 -6.96466,6.897257 0,0.2694 2.46976,1.8145 2.9059,1.81796 0.21579,0.002 1.61478,-1.21515 3.10885,-2.704141 z"
       id="path179"
       sodipodi:nodetypes="sssscsssssssscssssssssscscsssscccccccccsssssssssssssssscs" /></g></svg>
