<?xml version="1.0" encoding="UTF-8" standalone="no"?>
<!-- Created with Inkscape (http://www.inkscape.org/) -->

<svg
   width="89.68985mm"
   height="80.859062mm"
   viewBox="0 0 89.68985 80.859062"
   version="1.1"
   id="svg1"
   xml:space="preserve"
   xmlns="http://www.w3.org/2000/svg"
   xmlns:svg="http://www.w3.org/2000/svg"><defs
     id="defs1" /><g
     id="layer1"
     transform="translate(-56.288999,-90.529508)"><path
       style="fill:#000000"
       d="m 77.809168,170.90691 c -1.814482,-0.62452 -3.2961,-1.46979 -3.497852,-1.99555 -0.08189,-0.2134 -0.226372,-1.14425 -0.321069,-2.06855 -0.209776,-2.04754 0.06828,-2.32184 1.436079,-1.41667 1.70587,1.12889 3.171548,1.78095 4.003168,1.78095 0.701486,0 0.804291,0.0932 0.804291,0.72935 0,0.40114 0.118505,1.14255 0.263344,1.64758 0.547909,1.91044 -0.08124,2.22008 -2.687961,1.32289 z m 1.823792,-0.15551 c -0.08792,-0.0879 -0.316122,-0.0973 -0.507118,-0.0209 -0.211067,0.0845 -0.148372,0.14716 0.159853,0.15986 0.278914,0.0115 0.435184,-0.0511 0.347265,-0.13897 z m 0.503005,-0.96462 c -0.08775,-0.32743 -0.161164,-0.9086 -0.163151,-1.29151 -0.0031,-0.59701 -0.163817,-0.73675 -1.128092,-0.98086 -0.618463,-0.15657 -1.809088,-0.6978 -2.645833,-1.20274 -0.836745,-0.50493 -1.521354,-0.81677 -1.521354,-0.69296 0,0.1238 0.140299,0.8329 0.311776,1.57578 0.246023,1.06583 0.49113,1.46154 1.162192,1.87628 1.08498,0.67055 2.712769,1.26871 3.517828,1.29268 0.523282,0.0156 0.599957,-0.0792 0.466634,-0.57667 z m -3.923596,-0.20954 c -0.538289,-0.28428 -1.110746,-0.72551 -1.272127,-0.98049 -0.198093,-0.313 -0.260315,-0.33468 -0.19152,-0.0667 0.112568,0.43842 1.690141,1.59427 2.150753,1.5758 0.160381,-0.006 -0.148817,-0.24429 -0.687106,-0.52857 z m 15.004381,-0.51361 c -0.09694,-0.15684 -0.927724,-0.19529 -2.092478,-0.0968 -1.062443,0.0898 -2.597657,0.0801 -3.411588,-0.0216 l -1.479874,-0.1849 -0.320592,-1.43255 c -0.260107,-1.16228 -0.250483,-1.77054 0.05101,-3.224 0.362516,-1.74765 0.393047,-1.7935 1.248979,-1.87566 0.637641,-0.0612 1.13907,0.11539 1.835096,0.64628 0.629403,0.48007 0.994314,0.62069 1.064473,0.41021 0.196278,-0.58883 0.88516,-1.10462 1.467471,-1.09875 0.912822,0.009 2.669618,0.91318 3.853809,1.98303 0.942722,0.85169 1.088229,1.13036 1.088229,2.08411 0,1.32631 -0.470332,2.06328 -1.684476,2.63943 -1.049008,0.49779 -1.395601,0.53442 -1.620058,0.17124 z m 1.924043,-0.99665 c 0.409489,-0.40018 0.486459,-0.51311 0.171047,-0.25095 -0.315413,0.26216 -0.916461,0.57935 -1.335662,0.70487 -0.643578,0.19269 -0.670195,0.23174 -0.171047,0.25095 0.325126,0.0125 0.926174,-0.30468 1.335662,-0.70487 z m -6.755446,0.2763 c -0.327422,-0.0631 -0.863203,-0.0631 -1.190625,0 -0.327422,0.0631 -0.05953,0.11466 0.595313,0.11466 0.654843,0 0.922734,-0.0516 0.595312,-0.11466 z m 7.14375,-1.35031 c 0.400182,-0.37325 0.727604,-0.88063 0.727604,-1.12751 0,-0.61549 -1.932828,-2.31097 -3.348223,-2.93707 -1.325784,-0.58646 -2.006691,-0.47468 -2.402678,0.39442 -0.228014,0.50043 -0.155819,0.74455 0.422868,1.42985 0.383804,0.45451 0.93595,0.88123 1.226991,0.94826 0.329514,0.0759 0.201514,0.13345 -0.339255,0.15256 -0.566823,0.02 -0.934377,0.19489 -1.058333,0.50348 -0.182363,0.454 -0.208315,0.454 -0.652932,0 -0.441331,-0.45064 -0.438964,-0.47279 0.05053,-0.47279 0.832536,0 0.884091,-0.4665 0.156916,-1.41988 -0.803391,-1.0533 -2.782279,-2.17971 -3.407702,-1.93971 -0.359021,0.13777 -0.437037,0.56212 -0.433714,2.3591 0.0022,1.20511 0.116875,2.36971 0.254771,2.58799 0.19792,0.3133 0.924967,0.40508 3.452418,0.43581 1.760934,0.0214 3.269285,0.10652 3.351891,0.18913 0.210773,0.21077 1.139178,-0.30184 1.998847,-1.10364 z m 29.434893,1.25732 c -4.54086,-0.45935 -8.49498,-3.02995 -11.37232,-7.3932 -6.72834,-10.20302 -3.86954,-26.64302 6.08721,-35.0054 2.38974,-2.00707 5.98024,-3.78172 8.68182,-4.29109 2.57827,-0.48613 3.78517,-0.48586 6.08458,0.001 6.11342,1.29531 10.82904,6.23527 12.93523,13.55063 0.51381,1.78461 0.59488,2.69169 0.59828,6.69453 0.003,2.96615 -0.12277,5.1532 -0.34864,6.08541 -1.47802,6.10004 -3.86336,10.5915 -7.64124,14.38799 -4.50325,4.52544 -9.53596,6.52507 -15.02492,5.9698 z m 5.62725,-0.89138 c 4.59423,-1.22301 9.1001,-4.62897 12.21442,-9.23279 1.38326,-2.04484 3.11982,-5.95269 3.90771,-8.79369 0.66684,-2.4045 0.72999,-3.02843 0.73487,-7.26076 0.006,-5.47979 -0.29323,-6.93852 -2.26674,-11.03861 -1.0603,-2.20285 -1.65712,-3.06235 -3.21895,-4.6357 -2.93255,-2.95418 -6.77679,-4.67911 -10.46128,-4.69401 -1.89102,-0.008 -5.10424,0.77517 -7.10404,1.73072 -2.28867,1.09359 -4.45976,2.75838 -4.51263,3.4603 -0.0213,0.28307 -0.34916,1.59356 -0.72852,2.91219 -0.37935,1.31863 -0.74582,2.65319 -0.81435,2.96568 -0.0685,0.3125 -0.17426,0.77654 -0.23493,1.0312 -0.42039,1.76446 -0.70893,3.11884 -0.83959,3.94104 -0.0834,0.52506 -0.20085,1.20747 -0.26088,1.51645 -0.72433,3.72775 -0.66607,11.19034 0.11633,14.89913 0.72297,3.42714 1.88321,6.71433 3.43771,9.73974 0.67294,1.30968 1.26852,2.48304 1.32352,2.60745 0.055,0.12441 -0.18198,0.13939 -0.52662,0.0333 -0.34464,-0.10611 -0.54739,-0.10884 -0.45057,-0.006 0.0968,0.10277 0.87073,0.40881 1.71979,0.68009 1.89712,0.60614 5.95384,0.67966 7.96475,0.14435 z m -14.23436,-4.31901 c -2.15645,-2.29308 -2.28971,-2.42196 -1.84672,-1.78594 0.44403,0.63751 3.24531,3.57188 3.40988,3.57188 0.064,0 -0.63942,-0.80367 -1.56316,-1.78594 z m -5.10277,-9.90534 c -0.0845,-0.21106 -0.14716,-0.14837 -0.15986,0.15985 -0.0115,0.27892 0.0511,0.43519 0.13897,0.34727 0.0879,-0.0879 0.0973,-0.31612 0.0209,-0.50712 z m -0.26197,-1.46671 c -0.0671,-0.25743 -0.12639,-0.11087 -0.13178,0.3257 -0.005,0.43656 0.0495,0.64718 0.12197,0.46805 0.0725,-0.17913 0.0769,-0.53632 0.01,-0.79375 z m -0.25178,-5.41862 c -0.0518,-0.91521 -0.0946,-0.23527 -0.0952,1.51098 -5.3e-4,1.74625 0.0419,2.49506 0.0942,1.66402 0.0523,-0.83104 0.0528,-2.25979 9.5e-4,-3.175 z m 0.24365,-3.18537 c -0.0734,-0.1819 -0.13345,-0.0331 -0.13345,0.33073 0,0.3638 0.0601,0.51263 0.13345,0.33073 0.0734,-0.1819 0.0734,-0.47956 0,-0.66146 z m 0.2701,-1.30638 c -0.0845,-0.21107 -0.14716,-0.14837 -0.15986,0.15985 -0.0115,0.27892 0.0511,0.43519 0.13897,0.34727 0.0879,-0.0879 0.0973,-0.31613 0.0209,-0.50712 z m 0.26458,-1.32292 c -0.0845,-0.21106 -0.14716,-0.14837 -0.15985,0.15985 -0.0115,0.27892 0.051,0.43519 0.13896,0.34727 0.0879,-0.0879 0.0973,-0.31612 0.0209,-0.50712 z m 1.92782,-5.10976 c 0,-0.14552 -0.11541,-0.086 -0.25648,0.13229 -0.14106,0.21828 -0.25648,0.51594 -0.25648,0.66146 0,0.14552 0.11542,0.086 0.25648,-0.1323 0.14107,-0.21828 0.25648,-0.51593 0.25648,-0.66145 z m 0.93415,-1.7198 c 0.22575,-0.43656 0.35093,-0.79375 0.27817,-0.79375 -0.0728,0 -0.317,0.35719 -0.54276,0.79375 -0.22575,0.43657 -0.35093,0.79375 -0.27817,0.79375 0.0728,0 0.317,-0.35718 0.54276,-0.79375 z m 1.33274,-2.18281 c 0.40789,-0.61846 0.57254,-0.9848 0.36589,-0.81409 -0.39736,0.32827 -1.41043,1.93857 -1.21958,1.93857 0.0617,0 0.44581,-0.50601 0.85369,-1.12448 z m 1.44538,-1.91823 c 0.34178,-0.3638 0.56188,-0.66146 0.48912,-0.66146 -0.0728,0 -0.41193,0.29766 -0.7537,0.66146 -0.34178,0.3638 -0.56188,0.66146 -0.48912,0.66146 0.0728,0 0.41193,-0.29766 0.7537,-0.66146 z m 1.5875,-1.85208 c 0.49366,-0.50932 0.83803,-0.92604 0.76526,-0.92604 -0.0728,0 -0.53619,0.41672 -1.02984,0.92604 -0.49366,0.50932 -0.83803,0.92604 -0.76526,0.92604 0.0728,0 0.53619,-0.41672 1.02984,-0.92604 z m -21.512613,35.60274 c -0.554075,-0.25853 -1.118518,-0.58117 -1.254318,-0.71697 -0.422227,-0.42222 0.490707,-1.37939 1.645703,-1.72543 1.051509,-0.31504 1.103681,-0.30114 1.708905,0.45526 0.777894,0.97222 0.77966,1.20595 0.01454,1.92474 -0.71881,0.67529 -0.7964,0.67757 -2.114835,0.0624 z m 1.91253,-0.7915 c 0.320049,-0.20257 0.309306,-0.33967 -0.07225,-0.92199 -0.527893,-0.80567 -0.455081,-0.79372 -1.690668,-0.27746 l -0.973089,0.40658 0.783149,0.50012 c 0.881226,0.56275 1.402739,0.64093 1.952854,0.29275 z M 68.07978,161.84997 c -0.445426,-1.27775 -0.351028,-2.96453 0.193483,-3.45731 0.374458,-0.33888 0.668233,-0.37788 1.389062,-0.18439 0.502793,0.13495 1.23071,0.30943 1.617594,0.38773 0.523379,0.10593 0.87892,0.49454 1.389063,1.51826 0.738346,1.48167 0.793279,1.75106 0.463143,2.27129 -0.168145,0.26495 -0.505536,0.27539 -1.564108,0.0484 -0.904621,-0.194 -1.655927,-0.20491 -2.278271,-0.0331 -0.887104,0.24494 -0.941116,0.22035 -1.209966,-0.55087 z m 2.695151,-0.12127 c -0.327422,-0.0631 -0.863203,-0.0631 -1.190625,0 -0.327422,0.0631 -0.05953,0.11466 0.595312,0.11466 0.654844,0 0.922735,-0.0516 0.595313,-0.11466 z m 0.581012,-0.29758 c 0.719739,0.11232 1.37101,0.14183 1.447269,0.0656 0.07626,-0.0763 -0.133034,-0.65079 -0.465096,-1.27673 -0.550664,-1.03801 -0.734475,-1.16733 -2.090552,-1.47081 -1.353352,-0.30287 -1.51812,-0.2899 -1.835708,0.14442 -0.371525,0.50809 -0.435584,1.21681 -0.192003,2.12424 0.126226,0.47025 0.281108,0.5303 0.988575,0.38335 0.461394,-0.0959 1.427776,-0.0824 2.147515,0.03 z m 9.936175,0.0918 c -3.595545,-0.80317 -7.801356,-3.55841 -10.610095,-6.95071 -1.505483,-1.81828 -3.159744,-4.91878 -4.11858,-7.71927 -2.185697,-6.38381 -2.373034,-15.61168 -0.442175,-21.78079 0.617349,-1.97243 1.158276,-2.56552 1.508198,-1.65364 0.101293,0.26396 0.517562,0.39687 1.243019,0.39687 0.864081,0 1.315526,-0.19242 2.172595,-0.92604 0.790313,-0.67648 1.331829,-0.92604 2.009381,-0.92604 0.574495,0 1.149901,-0.20893 1.511819,-0.54893 0.490951,-0.46123 0.667396,-0.49704 1.104332,-0.22417 0.763527,0.47683 1.978009,-0.42058 1.772013,-1.30938 -0.169565,-0.73162 -0.08341,-0.64304 -3.161965,-3.25103 -3.160771,-2.67765 -3.68439,-3.26295 -4.484889,-5.01324 -2.344994,-5.12732 -0.923063,-10.43188 3.638505,-13.573554 0.793354,-0.54641 1.578885,-1.29288 1.745625,-1.65883 0.987196,-2.16666 2.964838,-3.52504 5.132052,-3.52504 1.030512,0 1.463969,-0.17438 2.628443,-1.05742 0.766937,-0.58159 1.773623,-1.12916 2.237081,-1.21684 1.813494,-0.34307 3.791326,0.94547 4.358874,2.83978 0.168407,0.56209 0.330628,1.02198 0.360493,1.02198 0.826695,0 3.313042,-0.76055 5.327603,-1.62965 2.32515,-1.00311 2.830886,-1.1248 4.720795,-1.13597 1.799058,-0.0106 2.343538,0.0989 3.628608,0.72996 1.94853,0.95685 3.3438,2.56321 4.46114,5.13606 0.71215,1.63984 0.89538,2.41326 0.90013,3.799364 0.005,1.52233 -0.0913,1.8679 -0.77028,2.75809 -0.42694,0.55974 -0.8087,1.32438 -0.84837,1.6992 -0.20639,1.94995 -0.73313,2.30578 -2.20617,1.49034 -0.96074,-0.53184 -2.12235,0.0975 -2.12235,1.14992 0,1.21749 -0.52655,1.42528 -1.73325,0.68399 -1.375555,-0.84501 -2.137046,-0.8507 -2.296385,-0.0172 -0.139891,0.7318 0.30198,0.93578 2.045265,0.94416 1.35646,0.007 3.04536,0.46866 3.63802,0.99548 1.15571,1.02733 0.0783,2.13083 -2.38946,2.44736 -0.83223,0.10674 -1.27439,0.20969 -0.98258,0.22877 0.59308,0.0388 1.1594,1.31174 1.37042,3.08038 0.0986,0.82671 -0.005,1.22859 -0.46858,1.818 -1.20251,1.52875 -3.055726,1.83353 -5.840605,0.96056 -0.922471,-0.28916 -2.093938,-0.52413 -2.603261,-0.52215 -1.3584,0.005 -4.345126,1.11138 -4.448352,1.6474 -0.115758,0.60108 1.480835,1.57428 2.270969,1.38425 0.330408,-0.0795 0.856764,-0.007 1.169679,0.16002 0.468505,0.25073 0.630234,0.22066 0.91617,-0.17039 0.296429,-0.40539 0.449415,-0.42831 1.045633,-0.15665 0.566302,0.25802 0.810267,0.24491 1.289842,-0.0693 0.764754,-0.50108 3.176068,-0.38077 4.330205,0.21606 0.47168,0.24391 1.06097,0.77791 1.30955,1.18667 0.37039,0.60905 0.5341,0.69137 0.90706,0.45612 0.33097,-0.20877 0.5384,-0.20376 0.76053,0.0184 0.54703,0.54704 1.29176,4.89296 1.46734,8.56283 0.46729,9.76723 -2.3773,17.87249 -8.351313,23.79589 -2.760721,2.73733 -4.986981,4.19996 -7.694396,5.05516 -2.250082,0.71073 -5.226165,0.86066 -7.408333,0.37321 z m 10.032689,-1.92195 c 2.278898,-1.13595 5.754591,-4.2669 7.58635,-6.83388 4.719683,-6.61404 6.578303,-16.04891 4.973643,-25.24754 -0.53132,-3.04578 -0.61586,-3.29724 -0.98461,-2.92849 -0.16488,0.16488 -0.42182,0.80194 -0.57099,1.41569 -0.18739,0.77102 -0.40473,1.10606 -0.70321,1.08402 -0.2983,-0.022 -0.47863,0.25543 -0.58265,0.89648 -0.12848,0.79168 -0.0144,1.08752 0.77446,2.00918 1.17536,1.37314 1.37065,2.13934 0.79407,3.11541 -0.43343,0.73374 -0.42808,0.79464 0.14214,1.61995 l 0.59249,0.85755 -0.70844,-0.64143 c -0.81685,-0.73959 -0.90254,-1.48368 -0.25345,-2.20091 0.43106,-0.47632 0.42758,-0.553 -0.0661,-1.45818 -0.54511,-0.99938 -1.1826,-1.43018 -1.1826,-0.79918 0,0.20259 -0.17754,0.59947 -0.39455,0.88194 -0.35222,0.4585 -0.3553,0.39813 -0.0287,-0.56277 0.32407,-0.95346 0.31625,-1.14181 -0.0685,-1.6496 -0.23887,-0.31528 -0.872202,-0.79597 -1.40741,-1.0682 l -0.973105,-0.49496 -0.156415,0.62321 c -0.08603,0.34276 -0.338653,0.6232 -0.561388,0.6232 -0.66381,0 -1.8808,-0.73401 -2.480015,-1.49579 l -0.560543,-0.71261 -1.050319,1.02561 c -0.577675,0.56408 -1.050318,1.1678 -1.050318,1.3416 0,0.1738 0.434118,1.15993 0.964708,2.19139 l 0.964708,1.87539 -0.675526,0.99606 c -0.636909,0.93912 -0.660912,1.09438 -0.419877,2.71585 0.140608,0.94589 0.201638,2.15704 0.135624,2.69145 -0.106856,0.86504 -0.03886,1.00528 0.619658,1.27805 0.406827,0.16851 1.019336,0.61561 1.361132,0.99355 l 0.621448,0.68717 -0.79375,-0.53277 c -1.444616,-0.96963 -1.433421,-0.97051 -1.295885,0.10215 l 0.127978,0.99811 -0.501359,-1.22095 c -0.342744,-0.83468 -0.545423,-2.15059 -0.640637,-4.1594 -0.130676,-2.757 -0.102097,-2.98885 0.462812,-3.75454 l 0.602088,-0.81608 -0.855467,-1.64123 c -0.470508,-0.90268 -0.9085,-1.80033 -0.973316,-1.99478 -0.140402,-0.42121 -2.170405,-0.84285 -2.645181,-0.54942 -0.215658,0.13328 -0.309056,0.71107 -0.265821,1.64444 0.07952,1.71664 -0.401925,2.42934 -1.387848,2.05449 -0.533589,-0.20287 -0.647123,-0.12254 -0.929156,0.65741 -0.5795,1.60258 -2.205031,1.37522 -2.945303,-0.41196 -0.345716,-0.83463 -0.350206,-0.83629 -0.665594,-0.24699 -0.332548,0.62137 -0.186057,1.7401 0.419192,3.2013 0.257731,0.62222 0.470437,0.77327 1.014988,0.7208 0.378909,-0.0365 1.046113,0.14177 1.482676,0.3962 0.707114,0.4121 0.721553,0.44357 0.132291,0.28835 -1.521526,-0.40079 -2.439116,-0.30249 -3.206885,0.34354 -0.87037,0.73237 -0.954954,1.26504 -0.313439,1.97391 0.383118,0.42334 0.404856,0.65758 0.149259,1.60833 -0.26934,1.00188 -0.234526,1.22896 0.349186,2.27755 0.86684,1.5572 0.614754,1.71809 -0.285378,0.18213 -0.640002,-1.09208 -0.763069,-1.17981 -1.280097,-0.91252 -0.502346,0.2597 -0.487016,0.20291 0.125859,-0.46618 1.031513,-1.12613 1.151235,-1.79903 0.481305,-2.70516 -0.64804,-0.87652 -0.482885,-1.46595 0.663389,-2.36761 0.628859,-0.49466 0.640401,-0.55686 0.286128,-1.54187 -0.20304,-0.56454 -0.435872,-1.23992 -0.517403,-1.50085 -0.119602,-0.38278 -0.249479,-0.42025 -0.6723,-0.19397 -0.802244,0.42935 -1.457046,-0.75977 -1.512298,-2.74634 -0.03878,-1.39441 -0.13093,-1.65 -0.760102,-2.10832 -0.61903,-0.45094 -0.827992,-0.47872 -1.543366,-0.20521 -0.725241,0.27728 -0.869421,0.25447 -1.167742,-0.18472 -0.300494,-0.44239 -0.486364,-0.47018 -1.5875,-0.23736 -0.685936,0.14503 -1.340787,0.39756 -1.455223,0.56118 -0.114437,0.16363 -0.137643,1.0144 -0.05157,1.89061 0.151856,1.54586 0.132522,1.61084 -0.651829,2.19073 -1.109025,0.81994 -1.076452,1.88744 0.118126,3.87123 0.509549,0.84619 0.749113,1.39135 0.532363,1.21147 -0.216749,-0.17989 -0.663418,-0.76017 -0.992598,-1.28951 l -0.598509,-0.96245 -0.158699,1.19063 c -0.128237,0.96208 -0.166327,1.02793 -0.198438,0.34303 l -0.03974,-0.84759 -0.792365,0.45072 c -0.926842,0.52721 -1.19391,1.49693 -0.937331,3.40346 1.356315,10.07815 7.55805,17.90557 15.811581,19.95633 2.297441,0.57085 2.669763,0.5173 5.21122,-0.74953 z M 65.862443,141.4929 c -0.08446,-0.21107 -0.147157,-0.14838 -0.159853,0.15985 -0.01149,0.27891 0.05105,0.43518 0.138964,0.34726 0.08792,-0.0879 0.09732,-0.31612 0.02089,-0.50711 z m -0.270096,-2.13321 c -0.0734,-0.1819 -0.133452,-0.0331 -0.133452,0.33073 0,0.3638 0.06005,0.51263 0.133452,0.33073 0.0734,-0.1819 0.0734,-0.47956 0,-0.66146 z m -0.245333,-5.42396 c -0.0545,-0.69122 -0.0991,-0.12567 -0.0991,1.25677 0,1.38245 0.04459,1.948 0.0991,1.25678 0.0545,-0.69123 0.0545,-1.82232 0,-2.51355 z m 6.353959,2.23592 c 0.439054,-0.3999 0.595312,-0.83759 0.595312,-1.66752 0,-0.88519 0.141142,-1.23632 0.661458,-1.64561 0.957687,-0.75331 0.923432,-2.16575 -0.06614,-2.72734 -0.440824,-0.25017 -0.987816,-0.34629 -1.3878,-0.24386 -0.572652,0.14665 -0.700663,0.39558 -0.965379,1.87723 -0.16785,0.93949 -0.364291,2.56887 -0.436534,3.62085 -0.129629,1.88761 -0.12391,1.90886 0.436212,1.62058 0.31216,-0.16065 0.835454,-0.5361 1.162876,-0.83433 z m 14.812661,-3.09816 c 0.187008,-0.36251 0.309061,-1.19489 0.271229,-1.84974 -0.06767,-1.17122 -0.08388,-1.19062 -0.994828,-1.19062 -0.901181,0 -0.926495,0.0284 -0.942916,1.05833 -0.03846,2.41241 0.880614,3.50549 1.666515,1.98203 z m -3.675335,-0.75376 C 83.546392,131.0476 83.443713,130.43 82.52412,130.43 c -0.67407,0 -0.967419,0.73878 -0.967419,2.43638 0,1.06212 0.506333,0.84615 1.281598,-0.54665 z m 6.014186,-1.24045 c 0.204362,-1.08934 -0.199815,-1.71476 -0.976842,-1.51157 -0.39926,0.10441 -0.501515,0.28766 -0.39076,0.70029 0.0825,0.30739 0.151635,0.6552 0.153622,0.77293 0.002,0.11773 0.141072,0.1291 0.309077,0.0253 0.193598,-0.11965 0.233459,-0.0723 0.108846,0.12934 -0.254836,0.41234 0.03374,1.16791 0.367323,0.96174 0.140913,-0.0871 0.333843,-0.57219 0.428734,-1.078 z m -23.260138,-0.98 c -0.0734,-0.18191 -0.133452,-0.0331 -0.133452,0.33072 0,0.36381 0.06005,0.51263 0.133452,0.33073 0.0734,-0.1819 0.0734,-0.47955 0,-0.66145 z m 8.01844,-0.66146 c -0.01233,-0.67844 -0.619296,-1.36705 -1.296005,-1.47032 -0.32515,-0.0496 -0.688993,-0.24848 -0.808541,-0.44192 -0.148461,-0.24021 -0.208778,-0.15013 -0.190283,0.28418 0.01489,0.34973 -0.0656,0.90841 -0.178868,1.24152 -0.185965,0.5469 -0.141588,0.5895 0.45746,0.43915 0.364872,-0.0916 0.880388,-0.0403 1.14559,0.11391 0.685818,0.39883 0.880246,0.36164 0.870647,-0.16652 z m -7.748344,-0.90951 c -0.08446,-0.21107 -0.147157,-0.14837 -0.159853,0.15985 -0.01149,0.27892 0.05105,0.43519 0.138964,0.34727 0.08792,-0.0879 0.09732,-0.31612 0.02089,-0.50712 z m 14.900508,0.36395 c 0,-0.11815 -0.356784,-0.47861 -0.792853,-0.80101 -0.737278,-0.54509 -0.846689,-0.55834 -1.560886,-0.18901 -0.676205,0.34968 -0.806722,0.35054 -1.091627,0.007 -0.177976,-0.21444 -0.576906,-0.37609 -0.886509,-0.35921 -0.533075,0.0291 -0.534864,0.0373 -0.03375,0.15461 0.291041,0.0682 0.659027,0.28929 0.817746,0.4914 0.231006,0.29417 0.448864,0.30698 1.091982,0.0642 0.693641,-0.26182 0.907248,-0.22585 1.563504,0.26328 0.870907,0.64911 0.892392,0.65798 0.892392,0.36846 z m 10.032118,-0.74922 c 0.262403,-0.22442 -1.206772,-0.0611 -1.565451,0.17398 -0.279222,0.18304 -0.12235,0.20979 0.529166,0.0902 0.509323,-0.0935 0.975651,-0.21235 1.036285,-0.26421 z m 2.460356,-0.81194 c 1.237832,-1.21922 1.511309,-1.6636 1.02381,-1.6636 -0.133127,0 -0.673402,0.58762 -1.200611,1.30583 -0.52721,0.7182 -1.221959,1.35683 -1.543889,1.41917 -0.503586,0.0975 -0.512698,0.11839 -0.06525,0.14939 0.297349,0.0206 1.062196,-0.49794 1.785937,-1.21079 z m 4.686846,-0.51748 c 0.0281,-1.26666 -0.221654,-1.67528 -1.023947,-1.67528 -0.39674,0 -0.787359,0.066 -0.868043,0.1467 -0.08068,0.0807 0.212863,0.88435 0.652326,1.78593 0.676664,1.38821 0.831339,1.55821 1.010046,1.11008 0.116062,-0.29105 0.21939,-0.90639 0.229618,-1.36743 z m 2.877629,0.2494 c 0.0445,-0.44697 -0.10166,-1.24964 -0.32481,-1.7837 -0.34672,-0.82984 -0.512373,-0.95877 -1.139241,-0.88673 -0.628222,0.0722 -0.725667,0.19389 -0.678801,0.84776 0.06679,0.93185 1.310131,2.88198 1.746242,2.73892 0.17364,-0.057 0.35211,-0.46927 0.39661,-0.91625 z m -28.259032,-0.0643 c 0,-0.14095 -0.178593,-0.18774 -0.396875,-0.10398 -0.218281,0.0838 -0.396875,0.19909 -0.396875,0.25628 0,0.0572 0.178594,0.10398 0.396875,0.10398 0.218282,0 0.396875,-0.11532 0.396875,-0.25628 z m 29.364702,-1.41298 c -0.005,-1.06036 -0.317,-1.56899 -0.83924,-1.36859 -0.36143,0.1387 -0.36017,0.27728 0.012,1.31226 0.4674,1.29979 0.83331,1.3247 0.82722,0.0563 z m -30.952744,-0.10787 c 0.07246,-0.0649 -0.186491,-0.0381 -0.575451,0.0595 -0.625733,0.15705 -0.717109,0.0942 -0.793208,-0.54515 -0.07794,-0.65488 -0.191468,-0.72533 -1.210687,-0.7513 -0.618574,-0.0158 -1.124589,0.0606 -1.124479,0.16978 1.11e-4,0.10914 0.461568,0.19844 1.025461,0.19844 0.930795,0 1.040101,0.0742 1.186332,0.80536 0.147937,0.73968 0.209964,0.77991 0.760677,0.49333 0.329783,-0.17162 0.658893,-0.36512 0.731355,-0.42999 z m 14.745551,0.29437 c -0.08792,-0.0879 -0.316122,-0.0973 -0.507118,-0.0209 -0.211067,0.0845 -0.148372,0.14715 0.159852,0.15985 0.278915,0.0115 0.435184,-0.051 0.347266,-0.13896 z m 15.682073,-9.48183 c 0,-0.57045 -0.49801,-0.76772 -0.96328,-0.38158 -0.36763,0.3051 -0.35943,0.36131 0.0777,0.53335 0.73783,0.29035 0.88555,0.26503 0.88555,-0.15177 z m -1.748169,-0.36657 c 0.180164,-0.29151 -0.111074,-1.36884 -0.370044,-1.36884 -0.112427,0 -0.485494,0.22959 -0.829037,0.5102 l -0.624624,0.5102 0.661458,0.26678 c 0.841232,0.33929 0.996289,0.35018 1.162247,0.0817 z m -2.22058,-1.23654 c 0,-0.39954 -0.150972,-0.66146 -0.38126,-0.66146 -0.626546,0 -0.764915,0.53797 -0.240547,0.93523 0.639154,0.48422 0.621807,0.49186 0.621807,-0.27377 z m 4.135599,-0.26995 c -0.0897,-0.23378 -0.2888,-0.34737 -0.44241,-0.25244 -0.19181,0.11855 -0.18058,0.29157 0.0358,0.55233 0.38445,0.46324 0.62993,0.28217 0.40657,-0.29989 z m -5.619533,-1.56159 c -0.115413,-0.30076 -0.307421,-0.31883 -0.962234,-0.0906 l -0.81805,0.28517 0.755377,0.64975 c 0.75524,0.64963 0.755416,0.64965 0.962234,0.0906 0.113771,-0.30755 0.141974,-0.72826 0.06267,-0.93492 z m -1.955649,-0.65724 c 0,-0.63871 -0.08964,-0.74553 -0.529167,-0.6306 -0.643137,0.16819 -0.645751,0.19904 -0.07349,0.86739 0.585652,0.684 0.602657,0.67731 0.602657,-0.23679 z m -1.322917,-1.47997 c 0,-0.48759 -0.140704,-0.66146 -0.535266,-0.66146 -0.510136,0 -0.514918,0.0311 -0.101862,0.66146 0.238372,0.3638 0.479242,0.66145 0.535266,0.66145 0.05602,0 0.101862,-0.29765 0.101862,-0.66145 z m 5.827382,-1.34015 c 0.353941,-0.93093 0.370199,-0.90881 -0.668007,-0.90881 -1.057462,0 -1.081753,0.0455 -0.498737,0.93535 0.544312,0.83072 0.843401,0.82392 1.166744,-0.0265 z m -3.505662,-0.77678 c -0.04002,-0.0317 -0.394263,-0.13465 -0.787208,-0.22884 -0.702692,-0.16844 -0.709632,-0.15744 -0.421773,0.66831 l 0.292673,0.83957 0.494535,-0.61073 c 0.271994,-0.3359 0.461792,-0.63664 0.421773,-0.66831 z m 1.525618,0.15015 c -0.09592,-0.1552 -0.301016,-0.28218 -0.455766,-0.28218 -0.175444,0 -0.155372,0.15181 0.05332,0.40327 0.362887,0.43725 0.687211,0.33967 0.402448,-0.12109 z m 6.046231,0.093 c 0.37444,-0.97578 0.21128,-1.12558 -0.91471,-0.83977 l -1.07531,0.27294 0.74458,0.49093 c 0.9097,0.5998 1.04132,0.60782 1.24544,0.0759 z m 4.12004,-1.94534 c 0.15064,-0.28147 0.27389,-0.75659 0.27389,-1.05582 0,-0.51792 -0.0493,-0.50923 -1.0274,0.18105 -0.9999,0.70568 -1.0123,0.73369 -0.46302,1.04644 0.7692,0.43797 0.90015,0.41949 1.21653,-0.17167 z m -26.978192,-1.08462 c 0.344642,-0.23045 0.333566,-0.30261 -0.08416,-0.54834 -0.26457,-0.15564 -0.723722,-0.65947 -1.020338,-1.11964 -0.554707,-0.86057 -0.547764,-0.75414 0.06193,0.94927 0.384558,1.07441 0.446623,1.1172 1.042574,0.71871 z m -0.644447,-0.44272 c -0.143586,-0.37708 -0.113195,-0.40747 0.148112,-0.14811 0.180821,0.17948 0.262115,0.39297 0.180653,0.47443 -0.08146,0.0815 -0.229406,-0.0654 -0.328765,-0.32632 z m 7.104918,-2.23662 c -1.418921,-5.180874 -4.199133,-7.618334 -7.02362,-6.157744 -0.869042,0.4494 -1.560489,1.77251 -1.541904,2.9505 0.01048,0.664514 0.04869,0.633184 0.392891,-0.32223 0.209703,-0.58209 0.383071,-1.08505 0.385262,-1.11769 0.01126,-0.16781 1.625132,-0.86669 2.001379,-0.86669 2.25055,0 4.436482,3.681584 3.603939,6.069824 -0.264647,0.75916 -0.241982,0.80935 0.365554,0.80935 0.356232,0 0.647695,-0.11533 0.647695,-0.25628 0,-0.14096 -0.20836,-0.1915 -0.463021,-0.11232 -0.43332,0.13473 -0.433932,0.12521 -0.0095,-0.14841 0.24942,-0.1608 0.628877,-0.54277 0.843238,-0.84881 0.381585,-0.54479 0.394679,-0.5377 0.625215,0.33854 0.190779,0.72513 0.156281,0.91431 -0.18178,0.99679 -0.333995,0.0815 -0.311664,0.14086 0.111919,0.29752 0.291042,0.10764 0.568091,0.16181 0.615665,0.12038 0.04757,-0.0414 -0.120232,-0.83016 -0.372902,-1.75273 z m -0.463249,0.7155 c 0,-0.21188 -0.101161,-0.32272 -0.224802,-0.2463 -0.123641,0.0764 -0.156302,0.24977 -0.07258,0.38523 0.213948,0.34618 0.297381,0.3072 0.297382,-0.13893 z m -2.675682,-2.54824 c 0.272658,-0.44117 -0.340574,-0.94708 -0.70557,-0.58208 -0.305309,0.30531 -0.114226,0.86972 0.294447,0.86972 0.128344,0 0.313349,-0.12944 0.411123,-0.28764 z m -1.078265,-0.9351 c 0.655194,-0.655194 0.397424,-1.290804 -0.523483,-1.290804 -0.874486,0 -1.201867,0.67176 -0.65091,1.335634 0.409229,0.49309 0.645496,0.48407 1.174393,-0.0448 z m 7.137974,-6.204134 c -0.304646,-0.49293 -1.284624,-0.72678 -1.834723,-0.43781 -0.521298,0.27383 -0.521298,0.27563 0,0.4793 0.806672,0.31516 2.037938,0.28731 1.834723,-0.0415 z M 58.080071,154.20117 c -0.823963,-0.41825 -1.762986,-2.48967 -1.778303,-3.92281 l -0.01277,-1.19528 1.87817,0.0338 c 1.342357,0.0241 2.09273,0.17438 2.630264,0.52659 0.413652,0.27103 1.349009,0.55348 2.078571,0.62766 1.1852,0.1205 1.418335,0.2555 2.188963,1.26757 0.756093,0.99297 0.825415,1.21406 0.561962,1.79228 -0.343198,0.75324 -0.857234,0.9196 -2.723347,0.88138 -0.727604,-0.0149 -1.97776,0.0439 -2.778125,0.13065 -0.879065,0.0953 -1.688868,0.0391 -2.045381,-0.14184 z m 3.41766,-1.01931 c 0.429021,-0.13465 1.083599,-0.10868 1.651125,0.0655 0.689979,0.21176 1.117066,0.20805 1.604283,-0.0139 0.846399,-0.38564 0.835131,-0.51483 -0.149033,-1.7088 -0.689374,-0.83633 -0.972632,-0.98632 -1.862624,-0.98632 -0.577286,0 -1.491352,-0.22277 -2.031258,-0.49505 -0.539906,-0.27228 -1.666256,-0.5785 -2.503001,-0.6805 -1.381522,-0.1684 -1.521354,-0.13942 -1.521354,0.31532 0,0.86785 1.425015,3.35908 2.112944,3.69387 0.639734,0.31134 1.234859,0.26943 2.698918,-0.19007 z"
       id="path1" /></g></svg>
