
CASCADE Topology V1, (c) Matra-Datavision
Locations 5
1
1.000000000000000 0.000000000000000 0.000000000000000 0.000000000000000 
0.000000000000000 1.000000000000000 0.000000000000000 0.000000000000000 
0.000000000000000 0.000000000000000 1.000000000000000 0.000000000000000 
1
1.000000000000000 0.000000000000000 0.000000000000000 0.000000000000000 
0.000000000000000 1.000000000000000 0.000000000000000 0.000000000000000 
0.000000000000000 0.000000000000000 1.000000000000000 0.000000000000000 
1
1.000000000000000 0.000000000000000 0.000000000000000 0.000000000000000 
0.000000000000000 1.000000000000000 0.000000000000000 0.000000000000000 
0.000000000000000 0.000000000000000 1.000000000000000 0.000000000000000 
2  2 1 3 1 0
2  3 -1 2 -1 0
Curve2ds 40
1 0.00000000000000000 0.00000000000000000 1.00000000000000000 0.00000000000000000 
1 15.00000000000000000 0.00000000000000000 0.00000000000000000 1.00000000000000000 
1 0.00000000000000000 0.00000000000000000 0.00000000000000000 1.00000000000000000 
1 2.90021485752569097 -9.49621785173978772 0.00000000000000000 1.00000000000000000 
7 0 0  1 2 2  0.00000000000000000 1.00000000000000000  15.00000000000000000 1.00000000000000000 
 0.17455064928217601 2 14.82544935071782355 2
1 0.00000000000000000 0.00000000000000000 0.00000000000000000 1.00000000000000000 
1 2.00000000000000000 0.00000000000000000 0.00000000000000000 1.00000000000000000 
1 0.00000000000000000 0.00000000000000000 1.00000000000000000 0.00000000000000000 
1 8.83999999999999986 0.00000000000000000 0.00000000000000000 1.00000000000000000 
1 0.00000000000000000 0.00000000000000000 0.00000000000000000 1.00000000000000000 
1 3.07476550680786698 5.32923149897803672 -1.00000000000000000 0.00000000000000000 
7 0 0  1 2 2  0.00000000000000000 1.00000000000000000  8.83999999999999986 1.00000000000000000 
 0.17455064928217556 2 8.66544935071782518 2
1 0.00000000000000000 0.00000000000000000 1.00000000000000000 0.00000000000000000 
1 4.59999999999999787 0.00000000000000000 0.00000000000000000 1.00000000000000000 
1 0.00000000000000000 0.00000000000000000 0.00000000000000000 1.00000000000000000 
1 -5.59068384390995732 5.50378214826021228 0.00000000000000000 -1.00000000000000000 
7 0 0  1 2 2  0.00000000000000000 1.00000000000000000  4.59999999999999787 1.00000000000000000 
 0.17455064928217556 2 4.42544935071782231 2
1 0.00000000000000000 0.00000000000000000 1.00000000000000000 0.00000000000000000 
1 2.00000000000000000 0.00000000000000000 0.00000000000000000 1.00000000000000000 
1 0.00000000000000000 0.00000000000000000 0.00000000000000000 1.00000000000000000 
1 -5.76523449319213288 1.07833279754239020 1.00000000000000000 0.00000000000000000 
7 0 0  1 2 2  0.00000000000000000 1.00000000000000000  2.00000000000000000 1.00000000000000000 
 0.17455064928217578 2 1.82544935071782399 2
1 0.00000000000000000 0.00000000000000000 1.00000000000000000 0.00000000000000000 
1 2.59999999999999787 0.00000000000000000 0.00000000000000000 1.00000000000000000 
1 -0.17455064928217601 0.00000000000000000 0.00000000000000000 1.00000000000000000 
1 -3.93978514247430889 0.90378214826021441 0.00000000000000000 1.00000000000000000 
1 -0.17455064928217601 1.00000000000000000 1.00000000000000000 0.00000000000000000 
7 0 0  1 2 2  -0.17455064928217601 0.00000000000000000  5.01455064928217631 0.00000000000000000 
 0.00000000000000000 2 4.83999999999999986 2
1 5.01455064928217631 0.00000000000000000 0.00000000000000000 1.00000000000000000 
1 0.00000000000000000 0.00000000000000000 0.00000000000000000 1.00000000000000000 
1 -3.76523449319213288 3.67833279754238829 1.00000000000000000 0.00000000000000000 
1 0.00000000000000000 1.00000000000000000 1.00000000000000000 0.00000000000000000 
1 0.00000000000000000 0.00000000000000000 1.00000000000000000 0.00000000000000000 
1 13.00000000000000000 0.00000000000000000 0.00000000000000000 1.00000000000000000 
1 0.00000000000000000 0.00000000000000000 0.00000000000000000 1.00000000000000000 
1 1.24931615609004276 3.50378214826021228 0.00000000000000000 -1.00000000000000000 
1 0.17455064928217578 1.00000000000000000 1.00000000000000000 0.00000000000000000 
1 0.00000000000000000 0.00000000000000000 1.00000000000000000 0.00000000000000000 
1 1.07476550680786698 -9.32166720245761127 1.00000000000000000 0.00000000000000000 
7 0 0  1 2 2  0.00000000000000000 1.00000000000000000  2.00000000000000000 1.00000000000000000 
 0.17455064928217645 2 1.82544935071782355 2
Curves 24
1 0.00000000000000000 0.00000000000000000 0.00000000000000000 0.00000000000000000 1.00000000000000000 0.00000000000000000 
7 0 0  1 2 2  0.00000000000000000 15.00000000000000000 0.00000000000000000  0.17455064928217601 14.82544935071782355 10.00000000000000000 
 0.00000000000000000 2 1.00000000000000000 2
1 0.17455064928217601 0.00000000000000000 10.00000000000000000 0.00000000000000000 1.00000000000000000 0.00000000000000000 
7 0 0  1 2 2  0.00000000000000000 0.00000000000000000 0.00000000000000000  0.17455064928217601 0.17455064928217601 10.00000000000000000 
 0.00000000000000000 2 1.00000000000000000 2
1 0.00000000000000000 15.00000000000000000 0.00000000000000000 1.00000000000000000 0.00000000000000000 0.00000000000000000 
7 0 0  1 2 2  8.83999999999999986 15.00000000000000000 0.00000000000000000  8.66544935071782518 14.82544935071782533 10.00000000000000000 
 0.00000000000000000 2 1.00000000000000000 2
1 0.00000000000000000 14.82544935071782533 10.00000000000000000 1.00000000000000000 0.00000000000000000 -0.00000000000000000 
1 8.83999999999999986 15.00000000000000000 0.00000000000000000 0.00000000000000000 -1.00000000000000000 0.00000000000000000 
7 0 0  1 2 2  8.83999999999999986 10.40000000000000213 0.00000000000000000  8.66544935071782518 10.57455064928217681 10.00000000000000000 
 0.00000000000000000 2 1.00000000000000000 2
1 8.66544935071782518 15.00000000000000000 10.00000000000000000 -0.00000000000000000 -1.00000000000000000 0.00000000000000000 
1 8.83999999999999986 10.40000000000000213 0.00000000000000000 -1.00000000000000000 0.00000000000000000 0.00000000000000000 
7 0 0  1 2 2  6.83999999999999986 10.40000000000000213 0.00000000000000000  7.01455064928217631 10.57455064928217858 10.00000000000000000 
 0.00000000000000000 2 1.00000000000000000 2
1 8.83999999999999986 10.57455064928217858 10.00000000000000000 -1.00000000000000000 0.00000000000000000 0.00000000000000000 
1 6.83999999999999986 10.40000000000000213 0.00000000000000000 0.00000000000000000 1.00000000000000000 0.00000000000000000 
7 0 0  1 2 2  6.83999999999999986 13.00000000000000000 0.00000000000000000  7.01455064928217631 13.17455064928217645 10.00000000000000000 
 0.00000000000000000 2 1.00000000000000000 2
1 7.01455064928217631 10.40000000000000213 10.00000000000000000 0.00000000000000000 1.00000000000000000 0.00000000000000000 
1 6.83999999999999986 13.00000000000000000 0.00000000000000000 -1.00000000000000000 0.00000000000000000 0.00000000000000000 
7 0 0  1 2 2  2.00000000000000000 13.00000000000000000 0.00000000000000000  1.82544935071782355 13.17455064928217645 10.00000000000000000 
 0.00000000000000000 2 1.00000000000000000 2
1 6.83999999999999986 13.17455064928217645 10.00000000000000000 -1.00000000000000000 0.00000000000000000 0.00000000000000000 
1 2.00000000000000000 13.00000000000000000 0.00000000000000000 0.00000000000000000 -1.00000000000000000 0.00000000000000000 
7 0 0  1 2 2  2.00000000000000000 0.00000000000000000 0.00000000000000000  1.82544935071782422 0.17455064928217645 10.00000000000000000 
 0.00000000000000000 2 1.00000000000000000 2
1 1.82544935071782422 13.00000000000000000 10.00000000000000000 -0.00000000000000000 -1.00000000000000000 0.00000000000000000 
1 2.00000000000000000 0.00000000000000000 0.00000000000000000 -1.00000000000000000 0.00000000000000000 0.00000000000000000 
1 2.00000000000000000 0.17455064928217645 10.00000000000000000 -1.00000000000000000 0.00000000000000000 0.00000000000000000 
Polygon3D 0
PolygonOnTriangulations 0
Surfaces 11
9 0 0 0 0 1 1 2 2 2 2 0.00000000000000000 0.00000000000000000 0.00000000000000000  0.17455064928217601 0.17455064928217601 10.00000000000000000  
0.00000000000000000 15.00000000000000000 0.00000000000000000  0.17455064928217601 14.82544935071782355 10.00000000000000000  

0.00000000000000000 2
15.00000000000000000 2

0.00000000000000000 2
1.00000000000000000 2

1 0.00000000000000000 0.00000000000000000 0.00000000000000000 0.00000000000000000 0.00000000000000000 1.00000000000000000 0.50772275796230215 0.86152051690435882 -0.00000000000000000 -0.86152051690435882 0.50772275796230215 0.00000000000000000 
9 0 0 0 0 1 1 2 2 2 2 0.00000000000000000 15.00000000000000000 0.00000000000000000  0.17455064928217556 14.82544935071782533 10.00000000000000000  
8.83999999999999986 15.00000000000000000 0.00000000000000000  8.66544935071782518 14.82544935071782533 10.00000000000000000  

0.00000000000000000 2
8.83999999999999986 2

0.00000000000000000 2
1.00000000000000000 2

1 3.07476550680786698 9.49621785173978772 10.00000000000000000 -0.00000000000000000 -0.00000000000000000 -1.00000000000000000 -1.00000000000000000 0.00000000000000000 0.00000000000000000 0.00000000000000000 1.00000000000000000 -0.00000000000000000 
1 0.17455064928217601 0.17455064928217601 10.00000000000000000 0.00000000000000000 -0.00000000000000000 1.00000000000000000 0.50142541602542123 0.86520087388058819 0.00000000000000000 -0.86520087388058819 0.50142541602542123 0.00000000000000000 
9 0 0 0 0 1 1 2 2 2 2 2.00000000000000000 0.00000000000000000 0.00000000000000000  1.82544935071782355 0.17455064928217645 10.00000000000000000  
0.00000000000000000 0.00000000000000000 0.00000000000000000  0.17455064928217645 0.17455064928217645 10.00000000000000000  

0.00000000000000000 2
2.00000000000000000 2

0.00000000000000000 2
1.00000000000000000 2

9 0 0 0 0 1 1 2 2 2 2 8.83999999999999986 15.00000000000000000 0.00000000000000000  8.66544935071782518 14.82544935071782533 10.00000000000000000  
8.83999999999999986 10.40000000000000213 0.00000000000000000  8.66544935071782518 10.57455064928217681 10.00000000000000000  

0.00000000000000000 2
4.59999999999999787 2

0.00000000000000000 2
1.00000000000000000 2

9 0 0 0 0 1 1 2 2 2 2 8.83999999999999986 10.40000000000000213 0.00000000000000000  8.66544935071782341 10.57455064928217858 10.00000000000000000  
6.83999999999999986 10.40000000000000213 0.00000000000000000  7.01455064928217631 10.57455064928217858 10.00000000000000000  

0.00000000000000000 2
2.00000000000000000 2

0.00000000000000000 2
1.00000000000000000 2

9 0 0 0 0 1 1 2 2 2 2 6.83999999999999986 10.40000000000000213 0.00000000000000000  7.01455064928217631 10.57455064928217858 10.00000000000000000  
6.83999999999999986 13.00000000000000000 0.00000000000000000  7.01455064928217631 13.17455064928217645 10.00000000000000000  

0.00000000000000000 2
2.59999999999999787 2

0.00000000000000000 2
1.00000000000000000 2

9 0 0 0 0 1 1 2 2 2 2 6.83999999999999986 13.00000000000000000 0.00000000000000000  7.01455064928217631 13.17455064928217645 10.00000000000000000  
2.00000000000000000 13.00000000000000000 0.00000000000000000  1.82544935071782355 13.17455064928217645 10.00000000000000000  

-0.17455064928217601 2
5.01455064928217631 2

0.00000000000000000 2
1.00000000000000000 2

9 0 0 0 0 1 1 2 2 2 2 2.00000000000000000 13.00000000000000000 0.00000000000000000  1.82544935071782422 13.17455064928217645 10.00000000000000000  
2.00000000000000000 0.00000000000000000 0.00000000000000000  1.82544935071782422 0.17455064928217645 10.00000000000000000  

0.00000000000000000 2
13.00000000000000000 2

0.00000000000000000 2
1.00000000000000000 2

Triangulations 0

TShapes 62
Ve
0.000000100000000
0.000000000000000 0.000000000000000 0.000000000000000
0 0

0101101
*
Ve
0.000000100000000
0.000000000000000 15.000000000000000 0.000000000000000
0 0

0101101
*
Ed
 0.000000100000000 1 1 0
1  1 0 0.000000000000000 15.000000000000000
2  1 1 5 0.000000000000000 15.000000000000000
4 C0 1 5 2 5
0

0101000
+62 5 -61 5 *
Ve
0.000000100000000
0.174550649282176 14.825449350717824 10.000000000000000
0 0

0101101
*
Ed
 0.000000100000000 1 1 0
1  2 0 0.000000000000000 1.000000000000000
2  2 1 0 0.000000000000000 1.000000000000000
2  3 3 0 0.000000000000000 1.000000000000000
4 C0 1 0 3 0
0

0101000
+61 0 -59 0 *
Ve
0.000000100000000
0.174550649282176 0.174550649282176 10.000000000000000
0 0

0101101
*
Ed
 0.000000100000000 1 1 0
2  4 4 0 0.174550649282176 14.825449350717824
1  3 0 0.174550649282176 14.825449350717824
2  5 1 0 0.174550649282176 14.825449350717824
4 C0 1 0 5 0
0

0101000
+57 0 -59 0 *
Ed
 0.000000100000000 1 1 0
1  4 0 0.000000000000000 1.000000000000000
2  6 1 0 0.000000000000000 1.000000000000000
2  7 6 0 0.000000000000000 1.000000000000000
4 C0 1 0 6 0
0

0101000
+62 0 -57 0 *
Wi

0101000
+60 4 +58 0 -56 0 -55 0 *
Fa
0  0.000000100000000 1 0

0101000
+54 0 *
Ve
0.000000100000000
8.840000000000000 15.000000000000000 0.000000000000000
0 0

0101101
*
Ed
 0.000000100000000 1 1 0
1  5 0 0.000000000000000 8.840000000000000
2  8 3 5 0.000000000000000 8.840000000000000
4 C0 3 5 2 5
0

0101000
+61 5 -52 5 *
Ve
0.000000100000000
8.665449350717825 14.825449350717825 10.000000000000000
0 0

0101101
*
Ed
 0.000000100000000 1 1 0
1  6 0 0.000000000000000 1.000000000000000
2  9 3 0 0.000000000000000 1.000000000000000
2  10 7 0 0.000000000000000 1.000000000000000
4 C0 3 0 7 0
0

0101000
+52 0 -50 0 *
Ed
 0.000000100000000 1 1 0
2  11 4 0 0.174550649282176 8.665449350717825
1  7 0 0.174550649282176 8.665449350717825
2  12 3 0 0.174550649282176 8.665449350717825
4 C0 3 0 5 0
0

0101000
+59 0 -50 0 *
Wi

0101000
+51 4 +49 0 -48 0 -58 0 *
Fa
0  0.000000100000000 3 0

0101000
+47 0 *
Ve
0.000000100000000
8.840000000000000 10.400000000000002 0.000000000000000
0 0

0101101
*
Ed
 0.000000100000000 1 1 0
1  8 0 0.000000000000000 4.599999999999998
2  13 7 5 0.000000000000000 4.599999999999998
4 C0 7 5 2 5
0

0101000
+52 5 -45 5 *
Ve
0.000000100000000
8.665449350717825 10.574550649282177 10.000000000000000
0 0

0101101
*
Ed
 0.000000100000000 1 1 0
1  9 0 0.000000000000000 1.000000000000000
2  14 7 0 0.000000000000000 1.000000000000000
2  15 8 0 0.000000000000000 1.000000000000000
4 C0 7 0 8 0
0

0101000
+45 0 -43 0 *
Ed
 0.000000100000000 1 1 0
2  16 4 0 0.174550649282176 4.425449350717822
1  10 0 0.174550649282176 4.425449350717822
2  17 7 0 0.174550649282176 4.425449350717822
4 C0 7 0 5 0
0

0101000
+50 0 -43 0 *
Wi

0101000
+44 4 +42 0 -41 0 -49 0 *
Fa
0  0.000000100000000 7 0

0101000
+40 0 *
Ve
0.000000100000000
6.840000000000000 10.400000000000002 0.000000000000000
0 0

0101101
*
Ed
 0.000000100000000 1 1 0
1  11 0 0.000000000000000 2.000000000000000
2  18 8 5 0.000000000000000 2.000000000000000
4 C0 8 5 2 5
0

0101000
+45 5 -38 5 *
Ve
0.000000100000000
7.014550649282176 10.574550649282179 10.000000000000000
0 0

0101101
*
Ed
 0.000000100000000 1 1 0
1  12 0 0.000000000000000 1.000000000000000
2  19 8 0 0.000000000000000 1.000000000000000
2  20 9 0 0.000000000000000 1.000000000000000
4 C0 8 0 9 0
0

0101000
+38 0 -36 0 *
Ed
 0.000000100000000 1 1 0
2  21 4 0 0.174550649282176 1.825449350717824
1  13 0 0.174550649282176 1.825449350717824
2  22 8 0 0.174550649282176 1.825449350717824
4 C0 8 0 5 0
0

0101000
+43 0 -36 0 *
Wi

0101000
+37 4 +35 0 -34 0 -42 0 *
Fa
0  0.000000100000000 8 0

0101000
+33 0 *
Ve
0.000000100000000
6.840000000000000 13.000000000000000 0.000000000000000
0 0

0101101
*
Ed
 0.000000100000000 1 1 0
1  14 0 0.000000000000000 2.599999999999998
2  23 9 5 0.000000000000000 2.599999999999998
4 C0 9 5 2 5
0

0101000
+38 5 -31 5 *
Ve
0.000000100000000
7.014550649282176 13.174550649282176 10.000000000000000
0 0

0101101
*
Ed
 0.000000100000000 1 1 0
1  15 0 0.000000000000000 1.000000000000000
2  24 9 0 0.000000000000000 1.000000000000000
2  25 10 0 0.000000000000000 1.000000000000000
4 C0 9 0 10 0
0

0101000
+31 0 -29 0 *
Ed
 0.000000100000000 1 1 0
2  26 4 0 0.174550649282176 2.774550649282174
1  16 0 0.174550649282176 2.774550649282174
2  27 9 0 0.174550649282176 2.774550649282174
4 C0 9 0 5 0
0

0101000
+36 0 -29 0 *
Wi

0101000
+30 4 +28 0 -27 0 -35 0 *
Fa
0  0.000000100000000 9 0

0101000
+26 0 *
Ve
0.000000100000000
2.000000000000000 13.000000000000000 0.000000000000000
0 0

0101101
*
Ed
 0.000000100000000 1 1 0
1  17 0 0.000000000000000 4.840000000000000
2  28 10 5 0.000000000000000 4.840000000000000
4 C0 10 5 2 5
0

0101000
+31 5 -24 5 *
Ve
0.000000100000000
1.825449350717824 13.174550649282176 10.000000000000000
0 0

0101101
*
Ed
 0.000000100000000 1 1 0
1  18 0 0.000000000000000 1.000000000000000
2  29 10 0 0.000000000000000 1.000000000000000
2  30 11 0 0.000000000000000 1.000000000000000
4 C0 10 0 11 0
0

0101000
+24 0 -22 0 *
Ed
 0.000000100000000 1 1 0
2  31 4 0 -0.174550649282176 5.014550649282176
1  19 0 -0.174550649282176 5.014550649282176
2  32 10 0 -0.174550649282176 5.014550649282176
4 C0 10 0 5 0
0

0101000
+29 0 -22 0 *
Wi

0101000
+23 4 +21 0 -20 0 -28 0 *
Fa
0  0.000000100000000 10 0

0101000
+19 0 *
Ve
0.000000100000000
2.000000000000000 0.000000000000000 0.000000000000000
0 0

0101101
*
Ed
 0.000000100000000 1 1 0
1  20 0 0.000000000000000 13.000000000000000
2  33 11 5 0.000000000000000 13.000000000000000
4 C0 11 5 2 5
0

0101000
+24 5 -17 5 *
Ve
0.000000100000000
1.825449350717824 0.174550649282176 10.000000000000000
0 0

0101101
*
Ed
 0.000000100000000 1 1 0
1  21 0 0.000000000000000 1.000000000000000
2  34 11 0 0.000000000000000 1.000000000000000
2  35 6 0 0.000000000000000 1.000000000000000
4 C0 11 0 6 0
0

0101000
+17 0 -15 0 *
Ed
 0.000000100000000 1 1 0
2  36 4 0 -0.174550649282176 12.825449350717824
1  22 0 -0.174550649282176 12.825449350717824
2  37 11 0 -0.174550649282176 12.825449350717824
4 C0 11 0 5 0
0

0101000
+22 0 -15 0 *
Wi

0101000
+16 4 +14 0 -13 0 -21 0 *
Fa
0  0.000000100000000 11 0

0101000
+12 0 *
Ed
 0.000000100000000 1 1 0
1  23 0 0.000000000000000 2.000000000000000
2  38 6 5 0.000000000000000 2.000000000000000
4 C0 6 5 2 5
0

0101000
+17 5 -62 5 *
Ed
 0.000000100000000 1 1 0
2  39 4 0 0.174550649282176 1.825449350717824
1  24 0 0.174550649282176 1.825449350717824
2  40 6 0 0.174550649282176 1.825449350717824
4 C0 6 0 5 0
0

0101000
+15 0 -57 0 *
Wi

0101000
+10 4 +55 0 -9 0 -14 0 *
Fa
0  0.000000100000000 6 0

0101000
+8 0 *
Wi

0101100
+60 0 +51 0 +44 0 +37 0 +30 0 +23 0 +16 0 +10 0 *
Fa
0  0.000000100000000 2 0

0101000
-6 4 *
Wi

0101100
+56 0 +48 0 +41 0 +34 0 +27 0 +20 0 +13 0 +9 0 *
Fa
0  0.000000100000000 5 0

0101000
-4 0 *
Sh

0101100
+53 0 +46 0 +39 0 +32 0 +25 0 +18 0 +11 0 +7 0 +5 0 -3 0 
*
So

1100100
-2 0 *

+1 1 